<svg width="393" height="126" viewBox="0 0 393 126" fill="none" xmlns="http://www.w3.org/2000/svg">
<path d="M0 21C0 9.95431 8.95431 1 20 1H362C375.255 1 386 11.7452 386 25V110C386 118.284 379.284 125 371 125H15C6.71572 125 0 118.284 0 110V21Z" fill="#EA2B2E"/>
<path d="M139.619 85.9909C85.6667 42.8359 84.619 24.3678 82 1H238.095C237.397 11.6788 242.286 39.9714 267.429 67.7113C290.889 93.5949 343.081 112.194 372.94 122.834L373.607 123.072C374.663 123.448 374.387 125 373.266 125H225C222.73 124.183 173.667 113.225 139.619 85.9909Z" fill="#EE3739"/>
<path d="M266.308 75.8721C229.561 51.2794 223.616 15.7105 225.237 1.00014H351.691C385.5 1.00014 392.5 -1.50011 392.5 17.4999V88.9999C392.5 125.005 395.233 125.253 373.358 124.992C351.382 118.894 303.055 100.465 266.308 75.8721Z" fill="#FF3A3E"/>
</svg>
