<svg width="159" height="159" viewBox="0 0 159 159" fill="none" xmlns="http://www.w3.org/2000/svg">
<g clip-path="url(#clip0_3170_2572)">
<path d="M115.427 0.262562C117.3 5.70969 115.976 8.92538 113.904 13.9984C111.433 20.1197 111.603 25.9561 111.713 32.4547C112.366 31.2217 112.366 31.2217 113.033 29.9638C120.483 16.64 120.483 16.64 127.809 13.8823C137.828 12.3926 144.253 14.5273 152.572 20.0731C152.804 23.3232 152.804 23.3232 152.572 26.2639C148.229 28.2493 144.965 29.013 140.19 28.7402C140.19 23.7876 140.19 23.7876 141.429 21.3112C135.387 19.9837 135.387 19.9837 129.511 21.3886C123.503 26.2899 119.876 31.1152 117.904 38.6454C118.636 37.9304 119.369 37.2154 120.124 36.4787C121.591 35.0997 121.591 35.0997 123.088 33.6928C124.051 32.7735 125.013 31.8541 126.005 30.907C129.456 28.4488 131.1 28.2698 135.238 28.7402C135.238 30.3745 135.238 32.0089 135.238 33.6928C132.8 35.9418 132.8 35.9418 129.666 38.1037C126.576 40.1668 126.576 40.1668 124.094 42.3599C124.094 43.5857 124.094 44.8115 124.094 46.0744C125.799 46.3689 125.799 46.3689 127.538 46.6693C138.069 48.6716 146.344 50.6775 153.81 58.6107C156.127 65.2713 155.969 72.4633 154.095 79.2338C152.572 81.9809 152.572 81.9809 149.941 82.9869C148.792 83.1019 148.792 83.1019 147.619 83.2191C146.809 82.2471 145.998 81.2751 145.162 80.2736C137.338 71.1735 130.005 65.0783 119.142 59.6941C119.395 60.5911 119.649 61.4881 119.911 62.4123C120.244 63.6093 120.578 64.8064 120.922 66.0397C121.252 67.2176 121.582 68.3955 121.923 69.609C123.597 76.2561 124.242 82.399 124.172 89.2551C124.161 90.682 124.149 92.1089 124.138 93.579C124.123 94.6547 124.109 95.7305 124.094 96.8388C124.867 97.1916 125.639 97.5443 126.435 97.9077C129.925 99.7884 131.517 102.403 134 105.506C136.464 107.781 138.992 109.962 141.549 112.132C143.685 113.983 145.744 115.773 147.619 117.888C147.619 118.705 147.619 119.522 147.619 120.364C153.135 119.751 153.135 119.751 158.763 119.126C158.943 124.568 159.053 130.01 159.15 135.454C159.227 137.768 159.227 137.768 159.307 140.128C159.327 141.617 159.347 143.105 159.367 144.638C159.4 146.007 159.432 147.375 159.466 148.784C158.494 154 156.773 155.529 152.572 158.747C148.619 159.624 144.765 159.53 140.731 159.449C139.546 159.45 138.362 159.451 137.141 159.452C133.235 159.448 129.33 159.4 125.424 159.351C122.713 159.34 120.001 159.331 117.29 159.325C110.159 159.301 103.029 159.24 95.8985 159.172C88.62 159.108 81.3413 159.08 74.0626 159.049C59.7856 158.983 45.5091 158.877 31.2325 158.747C31.2325 157.112 31.2325 155.478 31.2325 153.794C32.6979 153.787 34.1633 153.78 35.673 153.772C49.4653 153.701 63.2573 153.611 77.0492 153.502C84.1403 153.447 91.2313 153.398 98.3224 153.365C105.163 153.333 112.002 153.283 118.842 153.221C121.455 153.2 124.068 153.186 126.681 153.178C130.334 153.166 133.986 153.131 137.638 153.091C138.725 153.093 139.811 153.095 140.931 153.097C146.329 153.18 146.329 153.18 151.007 150.876C153.148 148.092 152.849 146.068 152.572 142.651C151.729 143.289 150.886 143.928 150.018 144.585C145.252 146.917 142.819 146.381 137.714 145.127C136.514 144.386 135.314 143.646 134.077 142.883C130.525 141.018 130.525 141.018 127.925 142.317C126.235 143.269 124.55 144.23 122.871 145.2C118.834 147.088 115.899 146.29 111.713 145.127C110.487 144.386 109.261 143.646 107.998 142.883C106.772 142.398 105.547 141.912 104.284 141.413C102.127 142.611 99.9718 143.824 97.9237 145.2C93.6131 147.377 90.3026 146.256 85.7114 145.127C84.8176 144.437 83.9239 143.748 83.003 143.038C82.2624 142.501 81.5218 141.965 80.7588 141.413C77.53 142.3 75.066 143.573 72.2465 145.359C68.1727 146.917 65.1481 146.068 60.9483 145.127C59.7481 144.386 58.5478 143.646 57.3112 142.883C53.7595 141.018 53.7595 141.018 51.1591 142.317C49.4694 143.269 47.7847 144.23 46.1049 145.2C42.0687 147.088 39.1337 146.29 34.947 145.127C33.7212 144.386 32.4955 143.646 31.2325 142.883C29.3939 142.155 29.3939 142.155 27.5181 141.413C25.3629 142.61 23.2092 143.822 21.1677 145.204C16.9051 147.34 13.4704 146.201 8.94571 145.127C8.12852 144.31 7.31134 143.493 6.46939 142.651C6.78588 145.552 7.20326 148.443 7.70755 151.318C11.0528 152.99 14.0445 152.975 17.7676 153.252C19.8026 153.408 19.8026 153.408 21.8786 153.567C22.9225 153.642 23.9663 153.717 25.0418 153.794C25.0418 155.428 25.0418 157.063 25.0418 158.747C22.073 158.915 19.1138 159.037 16.1425 159.134C14.8916 159.211 14.8916 159.211 13.6154 159.291C9.28584 159.396 6.57855 158.808 2.79362 156.696C-1.28478 149.982 -0.366514 143.132 -0.108316 135.454C-0.0803845 133.887 -0.0524534 132.321 -0.0236759 130.707C0.0491894 126.845 0.150938 122.986 0.278609 119.126C7.39801 118.884 7.39801 118.884 10.1839 121.06C12.6101 123.195 12.6101 123.195 16.0361 122.666C20.7928 121.417 24.1185 119.169 27.9824 116.262C42.8647 105.506 42.8647 105.506 48.5667 105.506C48.5923 104.152 48.6178 102.799 48.6441 101.405C49.8049 96.8388 49.8049 96.8388 53.7515 94.2851C59.0731 92.9765 60.9745 93.4587 65.9009 95.6007C69.6377 96.6546 71.9493 96.8614 75.8159 96.2488C81.7622 95.3402 87.681 95.4676 93.6821 95.5233C97.5892 95.5488 101.496 95.5744 105.522 95.6007C105.522 84.9773 105.522 74.3539 105.522 63.4086C95.4208 64.8516 92.9704 66.8967 86.9496 74.552C83.8312 79.389 80.9902 84.3329 78.2825 89.4099C72.3626 88.4716 72.3626 88.4716 69.9249 85.7728C67.4002 79.5871 66.2017 73.402 67.8259 66.8135C70.7611 59.9561 75.477 56.795 81.997 53.5033C74.192 54.226 67.1557 56.0301 59.7102 58.456C58.893 57.6388 58.0758 56.8216 57.2338 55.9796C57.5717 47.3647 60.4588 41.5371 66.52 35.6274C74.566 32.0355 83.3804 32.496 91.5927 35.55C92.9206 36.1629 94.2485 36.7758 95.6167 37.4073C95.3486 36.7321 95.0804 36.057 94.8042 35.3614C91.6925 26.9339 90.2821 19.6398 93.3725 11.0191C99.1211 2.49528 105.463 -0.120659 115.427 0.262562ZM99.3312 12.6441C96.8259 17.6548 97.4278 23.9164 98.9249 29.1997C99.8136 31.5514 100.802 33.8649 101.807 36.1691C102.625 35.7605 103.442 35.3519 104.284 34.931C104.982 32.1764 104.982 32.1764 105.338 28.8514C105.498 27.6264 105.657 26.4015 105.822 25.1394C105.978 23.8505 106.135 22.5617 106.296 21.2339C106.462 19.9402 106.628 18.6466 106.799 17.3138C107.209 14.1075 107.608 10.9003 107.998 7.69151C104.081 7.69151 102.193 10.1491 99.3312 12.6441ZM68.3773 42.3599C65.9281 46.1166 65.9281 46.1166 64.6628 49.7889C65.5342 49.6101 66.4057 49.4313 67.3035 49.2472C77.2395 47.3793 86.7615 47.0438 96.8549 47.3125C96.8549 46.4954 96.8549 45.6782 96.8549 44.8362C86.8713 39.969 78.7664 36.1664 68.3773 42.3599ZM104.284 41.1218C103.875 43.1647 103.467 45.2077 103.046 47.3125C104.271 47.7211 105.497 48.1297 106.76 48.5507C107.577 47.7335 108.394 46.9163 109.236 46.0744C108.842 43.4641 108.842 43.4641 107.998 41.1218C106.772 41.1218 105.547 41.1218 104.284 41.1218ZM115.427 47.3125C114.61 48.9469 113.793 50.5813 112.951 52.2652C114.585 52.2652 116.22 52.2652 117.904 52.2652C117.495 50.6308 117.086 48.9964 116.665 47.3125C116.257 47.3125 115.848 47.3125 115.427 47.3125ZM99.3312 53.5033C100.557 55.342 100.557 55.342 101.807 57.2178C103.442 56.8092 105.076 56.4006 106.76 55.9796C106.76 55.1625 106.76 54.3453 106.76 53.5033C104.309 53.5033 101.857 53.5033 99.3312 53.5033ZM122.856 53.5033C126.19 56.0623 129.597 58.3773 133.148 60.6227C138.033 63.8364 142.008 67.4159 145.994 71.6791C146.531 72.2186 147.067 72.758 147.619 73.3138C148.028 73.3138 148.436 73.3138 148.857 73.3138C149.573 66.1263 149.573 66.1263 146.381 59.9263C138.771 54.3774 132.17 53.0044 122.856 53.5033ZM93.1404 55.9796C85.6828 58.3525 79.3691 60.7866 74.4665 67.1037C72.3905 71.6621 73.3909 76.0235 74.568 80.7428C77.2953 78.1439 79.5046 75.451 81.6874 72.3852C85.4732 67.2487 89.7522 62.8359 94.3785 58.456C93.97 57.6388 93.5614 56.8216 93.1404 55.9796ZM110.475 59.6941C110.883 62.1457 111.292 64.5972 111.713 67.1231C112.53 67.1231 113.347 67.1231 114.189 67.1231C113.78 64.6715 113.372 62.22 112.951 59.6941C112.134 59.6941 111.317 59.6941 110.475 59.6941ZM111.713 73.3138C111.713 75.7654 111.713 78.2169 111.713 80.7428C113.756 80.7428 115.799 80.7428 117.904 80.7428C117.495 77.8826 117.086 75.0225 116.665 72.0757C114.097 71.8911 114.097 71.8911 111.713 73.3138ZM111.713 86.9336C111.304 90.2023 110.896 93.471 110.475 96.8388C112.762 97.6951 112.762 97.6951 115.427 98.077C116.653 97.2598 117.879 96.4426 119.142 95.6007C118.733 92.7405 118.325 89.8804 117.904 86.9336C115.861 86.9336 113.818 86.9336 111.713 86.9336ZM54.7575 100.553C55.1661 102.188 55.5747 103.822 55.9957 105.506C58.4472 106.119 58.4472 106.119 60.9483 106.744C61.3569 104.701 61.7655 102.658 62.1865 100.553C58.4112 99.3014 58.4112 99.3014 54.7575 100.553ZM67.1391 104.268C65.1456 107.283 65.1456 107.283 64.6628 110.459C63.4246 111.697 63.4246 111.697 59.3232 111.851C54.7575 111.697 54.7575 111.697 52.436 110.855C48.4491 110.254 46.222 111.924 42.7629 113.863C40.9553 114.85 40.9553 114.85 39.1113 115.856C35.8368 117.696 35.8368 117.696 34.947 121.602C38.3525 124.44 38.3525 124.44 41.7569 123.769C45.1168 122.925 45.1168 122.925 48.5667 120.364C55.6601 119.792 58.6095 120.315 64.6628 124.078C69.0386 123.766 70.8575 122.838 74.568 120.364C81.4626 119.817 83.973 119.898 89.4259 124.078C94.2266 123.784 96.5339 123.054 100.569 120.364C107.383 119.823 110.067 119.827 115.427 124.078C119.768 123.761 121.653 122.817 125.332 120.364C132.388 119.786 136.456 120.352 142.667 124.078C140.874 119.814 138.609 117.44 135.083 114.483C133.737 113.343 133.737 113.343 132.365 112.18C131.679 111.612 130.992 111.044 130.285 110.459C129.589 111.067 128.893 111.675 128.176 112.301C123.571 115.332 119.599 114.412 114.189 114.173C113.576 108.657 113.576 108.657 112.951 103.03C106.213 101.513 99.7091 101.564 92.8308 101.559C90.9754 101.537 90.9754 101.537 89.0825 101.513C81.7293 101.499 74.0677 101.495 67.1391 104.268ZM119.142 101.791C118.733 103.834 118.325 105.877 117.904 107.982C119.742 109.208 119.742 109.208 121.618 110.459C122.844 109.233 124.07 108.007 125.332 106.744C124.515 105.11 123.698 103.475 122.856 101.791C121.63 101.791 120.405 101.791 119.142 101.791ZM5.23124 125.316C4.7241 130.318 4.7241 130.318 5.23124 135.222C8.39513 138.604 8.39513 138.604 12.6602 140.174C17.0979 139.968 18.8151 138.96 22.5654 136.46C27.6159 135.744 32.2311 135.434 36.4947 138.394C37.2097 138.982 37.9248 139.569 38.6615 140.174C43.0026 139.857 44.8868 138.913 48.5667 136.46C55.6601 135.888 58.6095 136.412 64.6628 140.174C69.0386 139.862 70.8575 138.934 74.568 136.46C81.6614 135.888 84.6108 136.412 90.6641 140.174C95.0399 139.862 96.8588 138.934 100.569 136.46C107.383 135.919 110.067 135.923 115.427 140.174C119.768 139.857 121.653 138.913 125.332 136.46C130.383 135.744 134.998 135.434 139.262 138.394C139.977 138.982 140.692 139.569 141.429 140.174C146.272 139.926 150.181 138.436 153.81 135.222C154.357 131.761 154.1 128.851 153.81 125.316C152.763 125.955 151.716 126.593 150.637 127.251C145.584 129.364 142.975 129.083 137.714 127.793C136.488 126.976 135.262 126.158 134 125.316C129.999 124.79 128.261 125.038 124.791 127.174C120.861 129.474 118.682 129.593 114.189 129.031C112.112 127.815 110.048 126.578 107.998 125.316C103.93 124.706 102.38 124.93 98.9443 127.251C94.0373 129.876 91.1079 128.943 85.7114 127.793C84.8943 126.976 84.0771 126.158 83.2351 125.316C78.8444 124.829 76.5505 124.839 72.7882 127.251C68.4006 129.712 65.7439 128.947 60.9483 127.793C59.7225 126.976 58.4968 126.158 57.2338 125.316C52.0847 125.684 49.1808 126.145 44.8523 129.031C38.9087 129.677 36.2022 128.375 31.2325 125.316C27.1644 124.706 25.6139 124.93 22.1785 127.251C17.261 129.881 14.3661 128.929 8.94571 127.793C7.71993 126.976 6.49416 126.158 5.23124 125.316Z" fill="#EA2B2E" fill-opacity="0.05"/>
<path d="M37.4245 15.1189C42.5378 17.6756 45.219 19.7569 47.3297 25.0242C48.2115 31.2374 47.9849 36.0955 45.163 41.7393C41.8471 45.4236 39.4197 46.9634 34.5371 47.814C28.522 48.0413 24.7448 47.7686 20.0129 43.8287C15.964 39.9703 15.1993 37.1078 14.8281 31.4471C14.9111 26.4288 16.0035 23.0573 18.8521 18.8334C24.1549 14.0127 30.6297 14.1296 37.4245 15.1189ZM23.8048 23.786C20.8166 26.2495 20.8166 26.2495 20.8641 31.0602C20.983 34.6923 21.2634 36.0591 23.1857 39.263C27.5519 41.8827 31.2191 42.1198 36.1863 41.1202C39.9808 38.5906 40.918 36.86 42.2997 32.5305C42.3936 27.9333 41.5272 26.1038 38.6626 22.5479C32.8341 18.7229 29.3368 20.098 23.8048 23.786Z" fill="#EA2B2E" fill-opacity="0.05"/>
<path d="M17.614 47.3105C19.657 47.3105 21.6999 47.3105 23.8048 47.3105C22.7214 53.1918 22.7214 53.1918 21.3285 55.9776C19.2855 55.5691 17.2426 55.1605 15.1377 54.7395C15.9549 52.2879 16.7721 49.8364 17.614 47.3105Z" fill="#EA2B2E" fill-opacity="0.05"/>
<path d="M15.1368 38.6445C15.5454 39.8703 15.954 41.0961 16.375 42.359C13.6829 45.4549 11.7561 46.6137 7.70788 47.3116C7.29929 45.2687 6.8907 43.2257 6.46973 41.1208C9.74761 39.3124 11.2917 38.6445 15.1368 38.6445Z" fill="#EA2B2E" fill-opacity="0.05"/>
<path d="M7.70788 15.1191C11.4063 15.7355 13.1474 16.6819 16.375 18.8336C15.5578 20.468 14.7406 22.1023 13.8987 23.7862C10.8807 22.8576 10.8807 22.8576 7.70788 21.3099C6.6245 18.7562 6.6245 18.7562 6.46973 16.3573C6.87832 15.9487 7.28691 15.5401 7.70788 15.1191Z" fill="#EA2B2E" fill-opacity="0.05"/>
<path d="M41.1384 6.45312C43.1814 6.45312 45.2243 6.45312 47.3292 6.45312C46.2458 12.3344 46.2458 12.3344 44.8529 15.1202C42.8099 14.7116 40.767 14.303 38.6621 13.8821C39.4793 11.4305 40.2965 8.97897 41.1384 6.45312Z" fill="#EA2B2E" fill-opacity="0.05"/>
<path d="M16.3759 6.45312C18.0102 6.45312 19.6446 6.45312 21.3285 6.45312C23.8048 10.1676 23.8048 10.1676 23.8048 15.1202C21.7618 15.1202 19.7189 15.1202 17.614 15.1202C16.7968 12.6687 15.9796 10.2171 15.1377 7.69128C15.5463 7.28269 15.9549 6.8741 16.3759 6.45312Z" fill="#EA2B2E" fill-opacity="0.05"/>
<path d="M28.7578 49.7871C30.3922 49.7871 32.0265 49.7871 33.7104 49.7871C35.1034 56.9065 35.1034 56.9065 33.7104 59.6924C32.0761 59.6924 30.4417 59.6924 28.7578 59.6924C28.7578 56.4236 28.7578 53.1549 28.7578 49.7871Z" fill="#EA2B2E" fill-opacity="0.05"/>
<path d="M48.5682 38.6445C51.2535 39.2711 53.5205 39.8825 55.9972 41.1208C55.5886 43.1638 55.18 45.2068 54.759 47.3116C52.3075 46.4944 49.8559 45.6773 47.3301 44.8353C47.7387 42.7924 48.1473 40.7494 48.5682 38.6445Z" fill="#EA2B2E" fill-opacity="0.05"/>
<path d="M28.7578 2.73828C30.3922 2.73828 32.0265 2.73828 33.7104 2.73828C35.1034 9.85768 35.1034 9.85768 33.7104 12.6435C32.0761 12.6435 30.4417 12.6435 28.7578 12.6435C28.7578 9.3748 28.7578 6.10607 28.7578 2.73828Z" fill="#EA2B2E" fill-opacity="0.05"/>
<path d="M39.9003 47.3105C41.5346 47.3105 43.169 47.3105 44.8529 47.3105C47.3292 51.025 47.3292 51.025 46.8649 53.7335C46.6095 54.4741 46.3542 55.2146 46.0911 55.9776C43.7695 55.7455 43.7695 55.7455 41.1384 54.7395C39.5907 51.5667 39.5907 51.5667 38.6621 48.5487C39.0707 48.1401 39.4793 47.7315 39.9003 47.3105Z" fill="#EA2B2E" fill-opacity="0.05"/>
<path d="M55.9972 16.3579C55.9972 17.9922 55.9972 19.6266 55.9972 21.3105C53.5456 22.1277 51.0941 22.9449 48.5682 23.7868C48.1596 21.7439 47.7511 19.7009 47.3301 17.596C51.8184 14.9649 51.8184 14.9649 55.9972 16.3579Z" fill="#EA2B2E" fill-opacity="0.05"/>
<path d="M49.8066 28.7383C53.0754 28.7383 56.3441 28.7383 59.7119 28.7383C59.7119 30.3726 59.7119 32.007 59.7119 33.6909C56.4432 33.6909 53.1744 33.6909 49.8066 33.6909C49.8066 32.0565 49.8066 30.4222 49.8066 28.7383Z" fill="#EA2B2E" fill-opacity="0.05"/>
<path d="M2.75586 28.7383C6.02459 28.7383 9.29333 28.7383 12.6611 28.7383C12.6611 30.3726 12.6611 32.007 12.6611 33.6909C9.39238 33.6909 6.12365 33.6909 2.75586 33.6909C2.75586 32.0565 2.75586 30.4222 2.75586 28.7383Z" fill="#EA2B2E" fill-opacity="0.05"/>
</g>
<defs>
<clipPath id="clip0_3170_2572">
<rect width="158.484" height="158.484" fill="white" transform="translate(0.280273 0.261719)"/>
</clipPath>
</defs>
</svg>
