<?xml version="1.0" encoding="UTF-8"?>
<svg id="Layer_1" data-name="Layer 1" xmlns="http://www.w3.org/2000/svg" viewBox="0 0 40.96 40.68">
  <defs>
    <style>
      .cls-1 {
        fill: #ea2b2e;
        stroke-width: 0px;
      }
    </style>
  </defs>
  <path class="cls-1" d="M10.46,24.5h26.64c.14,0,.27,0,.41,0,.66.02,1.02.33,1.01.86-.01.5-.36.8-1,.8-9.37,0-18.74,0-28.11,0-.93,0-1.26-.51-.88-1.36.55-1.27,1.11-2.54,1.68-3.81.11-.26.14-.49.07-.78-1.26-5.55-2.51-11.1-3.76-16.65-.22-.97-.52-1.21-1.52-1.21-1.34,0-2.67,0-4.01,0C.36,2.35.01,2.07,0,1.56c0-.52.37-.84,1.02-.85,1.43,0,2.86-.01,4.3,0,1.43.01,2.46.84,2.78,2.24,1.22,5.4,2.43,10.8,3.62,16.2.12.55.31.72.89.72,7.26-.02,14.52-.02,21.78,0,.44,0,.62-.1.72-.57,1.03-4.61,2.09-9.22,3.14-13.82.05-.22.1-.46.22-.65.25-.37.63-.45,1.02-.27.43.2.53.57.43,1.02-.38,1.67-.76,3.35-1.14,5.02-.76,3.33-1.53,6.65-2.29,9.98-.18.8-.36.94-1.2.94-7.61,0-15.21,0-22.82-.01-.55,0-.83.14-1.01.67-.27.76-.64,1.48-1,2.32h0Z"/>
  <path class="cls-1" d="M30.15,4.65c0-.8,0-1.48,0-2.15,0-.59.3-.91.81-.91.51,0,.81.32.82.91.01.91.03,1.82,0,2.72-.02.47.11.78.52,1.05.71.46,1.38.99,2.06,1.5.61.45.75.91.42,1.35-.32.43-.82.42-1.43-.02-3.15-2.31-6.3-4.61-9.44-6.93-.36-.27-.57-.26-.93,0-3.17,2.34-6.36,4.66-9.53,6.99-.36.26-.72.39-1.12.15-.3-.17-.39-.46-.36-.79.03-.27.17-.46.38-.61,3.51-2.56,7.02-5.13,10.53-7.7.45-.33.85-.23,1.27.08,1.85,1.36,3.71,2.72,5.57,4.07.1.08.22.14.44.29h0Z"/>
  <path class="cls-1" d="M23.44,16.5h-6.15c-.72,0-1.1-.28-1.11-.8,0-.53.39-.84,1.09-.84,4.12,0,8.24,0,12.36,0,.44,0,.81.1.99.54.13.32.05.6-.17.86-.22.25-.5.25-.8.25-2.07,0-4.14,0-6.21,0h0Z"/>
  <path class="cls-1" d="M23.44,10.09c1.62,0,3.25,0,4.87,0,.65,0,.97.27.98.8s-.33.84-.96.84c-3.27,0-6.54,0-9.81,0-.62,0-.98-.31-.99-.82,0-.54.34-.82,1.02-.82,1.62,0,3.25,0,4.87,0h0Z"/>
  <path class="cls-1" d="M16.3,27.98c-2.1,0-3.83,1.73-3.85,3.84-.02,2.11,1.74,3.86,3.88,3.86,2.14,0,3.87-1.73,3.87-3.86,0-2.12-1.75-3.84-3.9-3.83h0ZM16.34,34.01c-1.24,0-2.22-.96-2.22-2.18,0-1.2,1.03-2.22,2.22-2.22,1.17,0,2.17,1,2.19,2.19.02,1.23-.95,2.21-2.18,2.21h0Z"/>
  <path class="cls-1" d="M30.5,27.98c-2.1,0-3.82,1.72-3.83,3.84-.02,2.12,1.74,3.87,3.87,3.86,2.16,0,3.86-1.72,3.85-3.87,0-2.14-1.74-3.84-3.89-3.83h0ZM30.55,34.01c-1.25,0-2.22-.94-2.22-2.17,0-1.21,1-2.22,2.21-2.22,1.19,0,2.22,1.04,2.21,2.23,0,1.19-.99,2.16-2.19,2.16h0Z"/>
</svg>