<svg width="180" height="180" viewBox="0 0 180 180" fill="none" xmlns="http://www.w3.org/2000/svg">
<path d="M22.4156 22.5652C22.4156 21.0789 23.0061 19.6534 24.0571 18.6024C25.1081 17.5514 26.5336 16.9609 28.0199 16.9609H151.314C152.801 16.9609 154.226 17.5514 155.277 18.6024C156.328 19.6534 156.919 21.0789 156.919 22.5652C156.919 24.0516 156.328 25.4771 155.277 26.5281C154.226 27.5791 152.801 28.1695 151.314 28.1695H134.501C134.501 31.2855 132.237 33.7738 129.402 33.7738H126.095V51.0911C130.859 52.3801 134.389 56.8074 134.389 61.9634C134.389 65.864 132.372 69.3162 129.329 71.3226L134.485 78.6081H159.642C160.395 78.6021 161.119 78.8929 161.658 79.4175C162.197 79.9421 162.508 80.6581 162.523 81.4103C162.523 81.7802 162.45 82.1464 162.307 82.4878C162.165 82.8293 161.957 83.1392 161.694 83.3997C161.432 83.6602 161.12 83.8661 160.778 84.0056C160.435 84.1451 160.068 84.2154 159.698 84.2124H156.919V101.025H159.642C160.395 101.019 161.119 101.31 161.658 101.835C162.197 102.359 162.508 103.075 162.523 103.827C162.508 104.58 162.197 105.296 161.658 105.82C161.119 106.345 160.395 106.636 159.642 106.63H153.937C154.017 107.142 153.95 107.667 153.743 108.143C153.537 108.619 153.2 109.027 152.771 109.32C152.267 109.656 151.707 109.824 151.146 109.824C150.249 109.824 149.409 109.432 148.848 108.647L147.419 106.63H98.9422L97.5131 108.647C96.9527 109.432 96.112 109.824 95.2153 109.824C94.6549 109.824 94.0945 109.656 93.5901 109.32C93.1615 109.027 92.8245 108.619 92.6182 108.143C92.4119 107.667 92.3447 107.142 92.4244 106.63H86.9434C86.1911 106.636 85.4668 106.345 84.9275 105.82C84.3882 105.296 84.0775 104.58 84.0628 103.827C84.0628 102.292 85.363 101.025 86.9434 101.025H89.6671V84.2124H86.9434C86.1911 84.2185 85.4668 83.9277 84.9275 83.4031C84.3882 82.8785 84.0775 82.1625 84.0628 81.4103C84.0628 79.8747 85.363 78.6081 86.9434 78.6081H111.882L117.038 71.3226C115.485 70.3046 114.208 68.9163 113.324 67.2826C112.439 65.6489 111.975 63.8211 111.972 61.9634C111.972 60.3942 113.261 59.1612 114.774 59.1612C116.344 59.1612 117.576 60.3942 117.576 61.9634C117.576 63.9809 118.658 65.7631 120.272 66.7495L120.748 66.0769C120.872 65.872 121.02 65.6837 121.191 65.5165C121.452 65.2548 121.762 65.0472 122.104 64.9059C122.445 64.7645 122.811 64.692 123.181 64.6927C123.909 64.6871 124.638 64.9729 125.17 65.5165C125.343 65.6833 125.494 65.8717 125.619 66.0769L126.089 66.7495C127.703 65.7631 128.785 63.9809 128.785 61.9634C128.785 58.881 126.375 56.4151 123.293 56.3591C122.34 56.3591 121.443 55.8547 120.939 55.0701C120.608 54.6355 120.43 54.1033 120.435 53.557C120.435 53.3328 120.435 53.1647 120.491 52.9405V33.7738H117.184C114.348 33.7738 112.084 31.2855 112.084 28.1695H78.4585V145.86H82.6617C86.5287 145.86 89.6671 148.998 89.6671 152.865V157.068H156.975C163.139 157.068 168.127 162.084 168.127 168.277H11.207C11.207 162.084 16.1948 157.068 22.3596 157.068H28.0199V152.865C28.0199 148.998 31.1583 145.86 35.0253 145.86H39.2285V28.1695H28.0199C26.5336 28.1695 25.1081 27.5791 24.0571 26.5281C23.0061 25.4771 22.4156 24.0516 22.4156 22.5652ZM44.8328 39.3781V51.6571L69.3908 39.3781H44.8328ZM48.2962 145.86H72.8542V133.581L48.2962 145.86ZM69.3908 129.047H44.8328V141.326L69.3908 129.047ZM48.2962 56.191H72.8542V43.912L48.2962 56.191ZM69.3908 61.7953H44.8328V74.0743L69.3908 61.7953ZM48.2962 78.6081H72.8542V66.3291L48.2962 78.6081ZM69.3908 84.2124H44.8328V96.4914L69.3908 84.2124ZM48.2962 101.025H72.8542V88.7463L48.2962 101.025ZM69.3908 106.63H44.8328V118.909L69.3908 106.63ZM48.2962 123.442H72.8542V111.163L48.2962 123.442ZM122.632 73.1608L118.776 78.6081H127.586L123.73 73.1608C123.364 73.1787 122.997 73.1787 122.632 73.1608ZM107.915 84.2124H95.2714V101.025H96.0111L107.915 84.2124ZM102.91 101.025H143.451L131.554 84.2124H114.808L102.91 101.025ZM138.452 84.2124L150.35 101.025H151.314V84.2124H138.452Z" fill="#EA2B2E" fill-opacity="0.05"/>
</svg>
