<svg width="8" height="8" viewBox="0 0 8 8" fill="none" xmlns="http://www.w3.org/2000/svg">
<g clip-path="url(#clip0_4368_2607)">
<path d="M7.10644 0.994141H5.92523C5.90158 0.994141 5.87889 1.00354 5.86216 1.02027C5.84543 1.037 5.83603 1.05968 5.83603 1.08334C5.83603 1.09854 5.84083 1.11214 5.84743 1.12454V1.80414C5.84746 1.82905 5.84258 1.85371 5.83306 1.87673C5.82354 1.89974 5.80957 1.92066 5.79196 1.93827C5.77435 1.95588 5.75344 1.96984 5.73042 1.97936C5.70741 1.98888 5.68274 1.99377 5.65783 1.99374H5.29024C5.26712 1.99374 5.24424 1.98919 5.22288 1.98034C5.20153 1.9715 5.18213 1.95853 5.16578 1.94219C5.14944 1.92585 5.13648 1.90645 5.12763 1.88509C5.11879 1.86374 5.11423 1.84085 5.11423 1.81774V1.13554C5.12597 1.12062 5.13256 1.10231 5.13303 1.08334C5.13306 1.07162 5.13077 1.06001 5.1263 1.04917C5.12183 1.03834 5.11526 1.0285 5.10697 1.02021C5.09868 1.01192 5.08884 1.00535 5.078 1.00088C5.06717 0.996404 5.05556 0.994114 5.04383 0.994141H2.66283C2.63918 0.994141 2.61649 1.00354 2.59976 1.02027C2.58303 1.037 2.57363 1.05968 2.57363 1.08334C2.57363 1.09714 2.57743 1.10974 2.58303 1.12154V1.80894C2.58303 1.83324 2.57825 1.85729 2.56895 1.87974C2.55966 1.90218 2.54603 1.92258 2.52885 1.93976C2.51167 1.95693 2.49128 1.97056 2.46883 1.97986C2.44639 1.98916 2.42233 1.99394 2.39803 1.99394H2.07163C2.02209 1.99394 1.97458 1.97426 1.93955 1.93923C1.90452 1.9042 1.88483 1.85668 1.88483 1.80714V1.12654C1.89279 1.11351 1.89714 1.0986 1.89743 1.08334C1.89746 1.07162 1.89517 1.06001 1.8907 1.04917C1.88622 1.03834 1.87966 1.0285 1.87137 1.02021C1.86308 1.01192 1.85324 1.00535 1.8424 1.00088C1.83157 0.996404 1.81996 0.994114 1.80823 0.994141H0.563634C0.511066 0.994194 0.460663 1.01509 0.423473 1.05224C0.386283 1.08939 0.36534 1.13977 0.365234 1.19234V7.09914C0.365234 7.20874 0.454234 7.29774 0.563634 7.29774H7.10644C7.15904 7.29763 7.20945 7.27666 7.24661 7.23943C7.28377 7.2022 7.30464 7.15174 7.30464 7.09914V1.19234C7.30453 1.13981 7.28361 1.08946 7.24647 1.05231C7.20932 1.01516 7.15897 0.994247 7.10644 0.994141ZM7.10644 7.11934H0.563634C0.560991 7.11934 0.558374 7.11882 0.555934 7.1178C0.553495 7.11678 0.551281 7.11529 0.549421 7.11341C0.547561 7.11153 0.546092 7.1093 0.545099 7.10686C0.544106 7.10441 0.543608 7.10178 0.543634 7.09914V2.64454H7.12624V7.09894C7.12629 7.10158 7.12582 7.10421 7.12485 7.10667C7.12388 7.10913 7.12243 7.11137 7.12059 7.11327C7.11875 7.11517 7.11655 7.11668 7.11412 7.11772C7.11169 7.11877 7.10908 7.11932 7.10644 7.11934Z" fill="#EA2B2E"/>
<path d="M2.25522 1.79011C2.30442 1.79011 2.34442 1.75011 2.34442 1.70091V0.501309C2.34442 0.489595 2.34211 0.477996 2.33763 0.467174C2.33314 0.456352 2.32657 0.446518 2.31829 0.438235C2.31001 0.429952 2.30017 0.423382 2.28935 0.418899C2.27853 0.414417 2.26693 0.412109 2.25522 0.412109C2.2435 0.412109 2.2319 0.414417 2.22108 0.418899C2.21026 0.423382 2.20042 0.429952 2.19214 0.438235C2.18386 0.446518 2.17729 0.456352 2.17281 0.467174C2.16832 0.477996 2.16602 0.489595 2.16602 0.501309V1.70111C2.16602 1.75031 2.20602 1.79011 2.25522 1.79011ZM5.48602 1.79011C5.53522 1.79011 5.57522 1.75011 5.57522 1.70091V0.501309C5.57522 0.489595 5.57291 0.477996 5.56843 0.467174C5.56394 0.456352 5.55737 0.446518 5.54909 0.438235C5.54081 0.429952 5.53097 0.423382 5.52015 0.418899C5.50933 0.414417 5.49773 0.412109 5.48602 0.412109C5.4743 0.412109 5.4627 0.414417 5.45188 0.418899C5.44106 0.423382 5.43122 0.429952 5.42294 0.438235C5.41466 0.446518 5.40809 0.456352 5.40361 0.467174C5.39912 0.477996 5.39682 0.489595 5.39682 0.501309V1.70111C5.39682 1.75031 5.43662 1.79011 5.48602 1.79011Z" fill="#EA2B2E"/>
<path d="M1.80019 3.99297C2.0717 3.99297 2.29179 3.77287 2.29179 3.50137C2.29179 3.22986 2.0717 3.00977 1.80019 3.00977C1.52869 3.00977 1.30859 3.22986 1.30859 3.50137C1.30859 3.77287 1.52869 3.99297 1.80019 3.99297Z" fill="#EA2B2E"/>
<path d="M3.2123 3.99297C3.48381 3.99297 3.7039 3.77287 3.7039 3.50137C3.7039 3.22986 3.48381 3.00977 3.2123 3.00977C2.9408 3.00977 2.7207 3.22986 2.7207 3.50137C2.7207 3.77287 2.9408 3.99297 3.2123 3.99297Z" fill="#EA2B2E"/>
<path d="M4.62246 3.99297C4.89396 3.99297 5.11406 3.77287 5.11406 3.50137C5.11406 3.22986 4.89396 3.00977 4.62246 3.00977C4.35096 3.00977 4.13086 3.22986 4.13086 3.50137C4.13086 3.77287 4.35096 3.99297 4.62246 3.99297Z" fill="#EA2B2E"/>
<path d="M1.80019 5.36211C2.0717 5.36211 2.29179 5.14201 2.29179 4.87051C2.29179 4.599 2.0717 4.37891 1.80019 4.37891C1.52869 4.37891 1.30859 4.599 1.30859 4.87051C1.30859 5.14201 1.52869 5.36211 1.80019 5.36211Z" fill="#EA2B2E"/>
<path d="M3.2123 5.36211C3.48381 5.36211 3.7039 5.14201 3.7039 4.87051C3.7039 4.599 3.48381 4.37891 3.2123 4.37891C2.9408 4.37891 2.7207 4.599 2.7207 4.87051C2.7207 5.14201 2.9408 5.36211 3.2123 5.36211Z" fill="#EA2B2E"/>
<path d="M4.62246 5.36211C4.89396 5.36211 5.11406 5.14201 5.11406 4.87051C5.11406 4.599 4.89396 4.37891 4.62246 4.37891C4.35096 4.37891 4.13086 4.599 4.13086 4.87051C4.13086 5.14201 4.35096 5.36211 4.62246 5.36211Z" fill="#EA2B2E"/>
<path d="M1.80019 6.73125C2.0717 6.73125 2.29179 6.51115 2.29179 6.23965C2.29179 5.96814 2.0717 5.74805 1.80019 5.74805C1.52869 5.74805 1.30859 5.96814 1.30859 6.23965C1.30859 6.51115 1.52869 6.73125 1.80019 6.73125Z" fill="#EA2B2E"/>
<path d="M3.2123 6.73125C3.48381 6.73125 3.7039 6.51115 3.7039 6.23965C3.7039 5.96814 3.48381 5.74805 3.2123 5.74805C2.9408 5.74805 2.7207 5.96814 2.7207 6.23965C2.7207 6.51115 2.9408 6.73125 3.2123 6.73125Z" fill="#EA2B2E"/>
<path d="M4.62246 6.73125C4.89396 6.73125 5.11406 6.51115 5.11406 6.23965C5.11406 5.96814 4.89396 5.74805 4.62246 5.74805C4.35096 5.74805 4.13086 5.96814 4.13086 6.23965C4.13086 6.51115 4.35096 6.73125 4.62246 6.73125Z" fill="#EA2B2E"/>
<path d="M6.00137 3.99297C6.27287 3.99297 6.49297 3.77287 6.49297 3.50137C6.49297 3.22986 6.27287 3.00977 6.00137 3.00977C5.72986 3.00977 5.50977 3.22986 5.50977 3.50137C5.50977 3.77287 5.72986 3.99297 6.00137 3.99297Z" fill="#EA2B2E"/>
<path d="M6.00137 5.36211C6.27287 5.36211 6.49297 5.14201 6.49297 4.87051C6.49297 4.599 6.27287 4.37891 6.00137 4.37891C5.72986 4.37891 5.50977 4.599 5.50977 4.87051C5.50977 5.14201 5.72986 5.36211 6.00137 5.36211Z" fill="#EA2B2E"/>
<path d="M6.00137 6.73125C6.27287 6.73125 6.49297 6.51115 6.49297 6.23965C6.49297 5.96814 6.27287 5.74805 6.00137 5.74805C5.72986 5.74805 5.50977 5.96814 5.50977 6.23965C5.50977 6.51115 5.72986 6.73125 6.00137 6.73125Z" fill="#EA2B2E"/>
</g>
<defs>
<clipPath id="clip0_4368_2607">
<rect width="8" height="8" fill="white"/>
</clipPath>
</defs>
</svg>
