<svg width="52" height="52" viewBox="0 0 52 52" fill="none" xmlns="http://www.w3.org/2000/svg">
<path d="M17.3333 21.6667C17.046 21.6667 16.7705 21.7808 16.5673 21.984C16.3641 22.1871 16.25 22.4627 16.25 22.75C16.25 23.0373 16.3641 23.3129 16.5673 23.516C16.7705 23.7192 17.046 23.8333 17.3333 23.8333H24.9167C25.204 23.8333 25.4795 23.7192 25.6827 23.516C25.8859 23.3129 26 23.0373 26 22.75C26 22.4627 25.8859 22.1871 25.6827 21.984C25.4795 21.7808 25.204 21.6667 24.9167 21.6667H17.3333ZM16.25 17.3333C16.25 17.046 16.3641 16.7705 16.5673 16.5673C16.7705 16.3641 17.046 16.25 17.3333 16.25H34.125C34.4123 16.25 34.6879 16.3641 34.891 16.5673C35.0942 16.7705 35.2083 17.046 35.2083 17.3333C35.2083 17.6207 35.0942 17.8962 34.891 18.0994C34.6879 18.3025 34.4123 18.4167 34.125 18.4167H17.3333C17.046 18.4167 16.7705 18.3025 16.5673 18.0994C16.3641 17.8962 16.25 17.6207 16.25 17.3333Z" fill="#EA2B2E"/>
<path fill-rule="evenodd" clip-rule="evenodd" d="M16.25 30.334C16.25 30.0467 16.3641 29.7711 16.5673 29.568C16.7705 29.3648 17.046 29.2507 17.3333 29.2507H21.6667C21.954 29.2507 22.2295 29.3648 22.4327 29.568C22.6359 29.7711 22.75 30.0467 22.75 30.334V34.6673C22.75 34.9546 22.6359 35.2302 22.4327 35.4334C22.2295 35.6365 21.954 35.7507 21.6667 35.7507H17.3333C17.046 35.7507 16.7705 35.6365 16.5673 35.4334C16.3641 35.2302 16.25 34.9546 16.25 34.6673V30.334ZM18.4167 33.584V31.4173H20.5833V33.584H18.4167ZM30.3333 33.584C31.1953 33.584 32.0219 33.2416 32.6314 32.6321C33.2409 32.0226 33.5833 31.1959 33.5833 30.334C33.5833 29.472 33.2409 28.6454 32.6314 28.0359C32.0219 27.4264 31.1953 27.084 30.3333 27.084C29.4714 27.084 28.6447 27.4264 28.0352 28.0359C27.4257 28.6454 27.0833 29.472 27.0833 30.334C27.0833 31.1959 27.4257 32.0226 28.0352 32.6321C28.6447 33.2416 29.4714 33.584 30.3333 33.584ZM30.3333 31.4173C30.4795 31.424 30.6256 31.401 30.7626 31.3497C30.8997 31.2984 31.0249 31.2199 31.1308 31.1188C31.2366 31.0178 31.3209 30.8964 31.3786 30.7619C31.4362 30.6273 31.466 30.4825 31.4662 30.3362C31.4663 30.1899 31.4368 30.045 31.3794 29.9104C31.3221 29.7758 31.238 29.6541 31.1323 29.5529C31.0267 29.4517 30.9016 29.3729 30.7646 29.3213C30.6277 29.2697 30.4817 29.2464 30.3355 29.2528C30.0568 29.265 29.7936 29.3842 29.6006 29.5856C29.4076 29.787 29.2998 30.0551 29.2995 30.334C29.2992 30.613 29.4065 30.8813 29.5991 31.083C29.7917 31.2848 30.0547 31.4046 30.3333 31.4173ZM23.8333 38.1145C23.8333 35.8222 28.1634 34.6673 30.3333 34.6673C32.5032 34.6673 36.8333 35.8222 36.8333 38.1145V42.2507H23.8333V38.1145ZM26.0596 38.1578L26 38.2196V40.084H34.6667V38.2206L34.6071 38.1567C34.4294 37.9834 34.0871 37.7537 33.5497 37.5252C32.4664 37.0647 31.1296 36.834 30.3333 36.834C29.5371 36.834 28.2002 37.0647 27.1169 37.5252C26.5796 37.7527 26.2372 37.9845 26.0596 38.1578Z" fill="#EA2B2E"/>
<path fill-rule="evenodd" clip-rule="evenodd" d="M18.4163 7.58398C18.4163 6.72203 18.7588 5.89538 19.3682 5.28589C19.9777 4.67639 20.8044 4.33398 21.6663 4.33398H30.333C31.195 4.33398 32.0216 4.67639 32.6311 5.28589C33.2406 5.89538 33.583 6.72203 33.583 7.58398H37.9163C38.7783 7.58398 39.6049 7.92639 40.2144 8.53589C40.8239 9.14538 41.1663 9.97203 41.1663 10.834V44.4173C41.1663 45.2793 40.8239 46.1059 40.2144 46.7154C39.6049 47.3249 38.7783 47.6673 37.9163 47.6673H14.083C13.2211 47.6673 12.3944 47.3249 11.7849 46.7154C11.1754 46.1059 10.833 45.2793 10.833 44.4173V10.834C10.833 9.97203 11.1754 9.14538 11.7849 8.53589C12.3944 7.92639 13.2211 7.58398 14.083 7.58398H18.4163ZM30.333 13.0007C31.195 13.0007 32.0216 12.6582 32.6311 12.0487C33.2406 11.4393 33.583 10.6126 33.583 9.75065H37.9163C38.2037 9.75065 38.4792 9.86479 38.6824 10.068C38.8855 10.2711 38.9997 10.5467 38.9997 10.834V44.4173C38.9997 44.7046 38.8855 44.9802 38.6824 45.1834C38.4792 45.3865 38.2037 45.5007 37.9163 45.5007H14.083C13.7957 45.5007 13.5201 45.3865 13.317 45.1834C13.1138 44.9802 12.9997 44.7046 12.9997 44.4173V10.834C12.9997 10.5467 13.1138 10.2711 13.317 10.068C13.5201 9.86479 13.7957 9.75065 14.083 9.75065H18.4163C18.4163 10.6126 18.7588 11.4393 19.3682 12.0487C19.9777 12.6582 20.8044 13.0007 21.6663 13.0007H30.333ZM21.6663 6.50065C21.379 6.50065 21.1035 6.61479 20.9003 6.81795C20.6971 7.02112 20.583 7.29667 20.583 7.58398V9.75065C20.583 10.038 20.6971 10.3135 20.9003 10.5167C21.1035 10.7198 21.379 10.834 21.6663 10.834H30.333C30.6203 10.834 30.8959 10.7198 31.099 10.5167C31.3022 10.3135 31.4163 10.038 31.4163 9.75065V7.58398C31.4163 7.29667 31.3022 7.02112 31.099 6.81795C30.8959 6.61479 30.6203 6.50065 30.333 6.50065H21.6663Z" fill="#EA2B2E"/>
</svg>
