<svg width="10" height="10" viewBox="0 0 10 10" fill="none" xmlns="http://www.w3.org/2000/svg">
<path d="M9.16732 7.75252C9.16732 7.8354 9.13439 7.91489 9.07579 7.97349C9.01718 8.0321 8.9377 8.06502 8.85482 8.06502H6.72982C6.66022 8.32455 6.50694 8.55387 6.29374 8.71743C6.08055 8.88098 5.81935 8.96963 5.55065 8.96963C5.28195 8.96963 5.02075 8.88098 4.80756 8.71743C4.59437 8.55387 4.44109 8.32455 4.37148 8.06502H1.14648C1.0636 8.06502 0.984119 8.0321 0.925513 7.97349C0.866908 7.91489 0.833984 7.8354 0.833984 7.75252C0.833984 7.66964 0.866908 7.59016 0.925513 7.53155C0.984119 7.47295 1.0636 7.44002 1.14648 7.44002H4.37148C4.44109 7.18049 4.59437 6.95117 4.80756 6.78762C5.02075 6.62407 5.28195 6.53542 5.55065 6.53542C5.81935 6.53542 6.08055 6.62407 6.29374 6.78762C6.50694 6.95117 6.66022 7.18049 6.72982 7.44002H8.85482C8.9377 7.44002 9.01718 7.47295 9.07579 7.53155C9.13439 7.59016 9.16732 7.66964 9.16732 7.75252ZM9.16732 2.24836C9.16732 2.33124 9.13439 2.41072 9.07579 2.46933C9.01718 2.52793 8.9377 2.56086 8.85482 2.56086H7.83398C7.76438 2.82039 7.6111 3.04971 7.39791 3.21326C7.18472 3.37681 6.92352 3.46546 6.65482 3.46546C6.38612 3.46546 6.12492 3.37681 5.91173 3.21326C5.69853 3.04971 5.54525 2.82039 5.47565 2.56086H1.14648C1.10545 2.56086 1.06481 2.55277 1.0269 2.53707C0.988982 2.52136 0.954532 2.49834 0.925513 2.46933C0.896495 2.44031 0.873477 2.40586 0.857772 2.36794C0.842067 2.33003 0.833984 2.28939 0.833984 2.24836C0.833984 2.20732 0.842067 2.16668 0.857772 2.12877C0.873477 2.09085 0.896495 2.0564 0.925513 2.02738C0.954532 1.99837 0.988982 1.97535 1.0269 1.95964C1.06481 1.94394 1.10545 1.93586 1.14648 1.93586H5.47565C5.54525 1.67632 5.69853 1.447 5.91173 1.28345C6.12492 1.1199 6.38612 1.03125 6.65482 1.03125C6.92352 1.03125 7.18472 1.1199 7.39791 1.28345C7.6111 1.447 7.76438 1.67632 7.83398 1.93586H8.85482C8.89601 1.9353 8.9369 1.943 8.97507 1.9585C9.01323 1.97401 9.04791 1.99701 9.07704 2.02614C9.10617 2.05527 9.12917 2.08994 9.14467 2.12811C9.16018 2.16627 9.16788 2.20716 9.16732 2.24836ZM9.16732 4.99836C9.16788 5.03955 9.16018 5.08044 9.14467 5.1186C9.12917 5.15677 9.10617 5.19144 9.07704 5.22058C9.04791 5.24971 9.01323 5.2727 8.97507 5.28821C8.9369 5.30372 8.89601 5.31142 8.85482 5.31086H3.97982C3.91022 5.57039 3.75694 5.79971 3.54374 5.96326C3.33055 6.12681 3.06935 6.21546 2.80065 6.21546C2.53195 6.21546 2.27075 6.12681 2.05756 5.96326C1.84437 5.79971 1.69109 5.57039 1.62148 5.31086H1.14648C1.0636 5.31086 0.984119 5.27793 0.925513 5.21933C0.866908 5.16072 0.833984 5.08124 0.833984 4.99836C0.833984 4.91548 0.866908 4.83599 0.925513 4.77738C0.984119 4.71878 1.0636 4.68586 1.14648 4.68586H1.62148C1.69109 4.42632 1.84437 4.197 2.05756 4.03345C2.27075 3.8699 2.53195 3.78125 2.80065 3.78125C3.06935 3.78125 3.33055 3.8699 3.54374 4.03345C3.75694 4.197 3.91022 4.42632 3.97982 4.68586H8.85482C8.9377 4.68586 9.01718 4.71878 9.07579 4.77738C9.13439 4.83599 9.16732 4.91548 9.16732 4.99836Z" fill="#7C7C7C"/>
</svg>
