<svg width="15" height="15" viewBox="0 0 10 8" fill="none" xmlns="http://www.w3.org/2000/svg">
<path d="M9.16732 6.75252C9.16732 6.8354 9.13439 6.91489 9.07579 6.97349C9.01718 7.0321 8.9377 7.06502 8.85482 7.06502H6.72982C6.66022 7.32455 6.50694 7.55387 6.29374 7.71743C6.08055 7.88098 5.81935 7.96963 5.55065 7.96963C5.28195 7.96963 5.02075 7.88098 4.80756 7.71743C4.59437 7.55387 4.44109 7.32455 4.37148 7.06502H1.14648C1.0636 7.06502 0.984119 7.0321 0.925513 6.97349C0.866908 6.91489 0.833984 6.8354 0.833984 6.75252C0.833984 6.66964 0.866908 6.59016 0.925513 6.53155C0.984119 6.47295 1.0636 6.44002 1.14648 6.44002H4.37148C4.44109 6.18049 4.59437 5.95117 4.80756 5.78762C5.02075 5.62407 5.28195 5.53542 5.55065 5.53542C5.81935 5.53542 6.08055 5.62407 6.29374 5.78762C6.50694 5.95117 6.66022 6.18049 6.72982 6.44002H8.85482C8.9377 6.44002 9.01718 6.47295 9.07579 6.53155C9.13439 6.59016 9.16732 6.66964 9.16732 6.75252ZM9.16732 1.24836C9.16732 1.33124 9.13439 1.41072 9.07579 1.46933C9.01718 1.52793 8.9377 1.56086 8.85482 1.56086H7.83398C7.76438 1.82039 7.6111 2.04971 7.39791 2.21326C7.18472 2.37681 6.92352 2.46546 6.65482 2.46546C6.38612 2.46546 6.12492 2.37681 5.91173 2.21326C5.69853 2.04971 5.54525 1.82039 5.47565 1.56086H1.14648C1.10545 1.56086 1.06481 1.55277 1.0269 1.53707C0.988982 1.52136 0.954532 1.49834 0.925513 1.46933C0.896495 1.44031 0.873477 1.40586 0.857772 1.36794C0.842067 1.33003 0.833984 1.28939 0.833984 1.24836C0.833984 1.20732 0.842067 1.16668 0.857772 1.12877C0.873477 1.09085 0.896495 1.0564 0.925513 1.02738C0.954532 0.998366 0.988982 0.975348 1.0269 0.959643C1.06481 0.943939 1.10545 0.935856 1.14648 0.935856H5.47565C5.54525 0.676324 5.69853 0.447004 5.91173 0.283451C6.12492 0.119899 6.38612 0.03125 6.65482 0.03125C6.92352 0.03125 7.18472 0.119899 7.39791 0.283451C7.6111 0.447004 7.76438 0.676324 7.83398 0.935856H8.85482C8.89601 0.935295 8.9369 0.942995 8.97507 0.958501C9.01323 0.974007 9.04791 0.997005 9.07704 1.02614C9.10617 1.05527 9.12917 1.08994 9.14467 1.12811C9.16018 1.16627 9.16788 1.20716 9.16732 1.24836ZM9.16732 3.99836C9.16788 4.03955 9.16018 4.08044 9.14467 4.1186C9.12917 4.15677 9.10617 4.19144 9.07704 4.22058C9.04791 4.24971 9.01323 4.2727 8.97507 4.28821C8.9369 4.30372 8.89601 4.31142 8.85482 4.31086H3.97982C3.91022 4.57039 3.75694 4.79971 3.54374 4.96326C3.33055 5.12681 3.06935 5.21546 2.80065 5.21546C2.53195 5.21546 2.27075 5.12681 2.05756 4.96326C1.84437 4.79971 1.69109 4.57039 1.62148 4.31086H1.14648C1.0636 4.31086 0.984119 4.27793 0.925513 4.21933C0.866908 4.16072 0.833984 4.08124 0.833984 3.99836C0.833984 3.91548 0.866908 3.83599 0.925513 3.77738C0.984119 3.71878 1.0636 3.68586 1.14648 3.68586H1.62148C1.69109 3.42632 1.84437 3.197 2.05756 3.03345C2.27075 2.8699 2.53195 2.78125 2.80065 2.78125C3.06935 2.78125 3.33055 2.8699 3.54374 3.03345C3.75694 3.197 3.91022 3.42632 3.97982 3.68586H8.85482C8.9377 3.68586 9.01718 3.71878 9.07579 3.77738C9.13439 3.83599 9.16732 3.91548 9.16732 3.99836Z" fill="#7C7C7C"/>
</svg>
