<svg width="351" height="159" viewBox="0 0 351 159" fill="none" xmlns="http://www.w3.org/2000/svg">
<g filter="url(#filter0_d_4379_3761)">
<path d="M349.436 113.105C349.197 113.52 348.413 114.488 347.896 114.499C346.83 114.523 347.284 113.638 346.132 114.523C345.022 115.381 343.862 116.027 343.168 117.221C342.863 117.75 342.612 118.494 342.149 118.925C341.236 119.767 341.169 119.226 340.624 118.502C340.115 117.824 339.201 117.398 338.892 116.587C338.586 115.776 339.041 115.161 339.311 114.311C339.625 113.348 339.703 113.422 338.845 112.847C338.073 112.33 337.669 112.357 336.771 112.193C335.96 112.044 335.466 111.621 334.78 112.193C334.223 112.651 334.098 113.595 333.706 114.178C332.553 115.894 331.224 114.801 329.88 114.092C329.186 115.874 327.92 114.276 326.913 114.073C326.611 114.01 326.18 114.225 325.968 114.194C325.713 114.147 325.498 113.885 325.231 113.841C324.576 113.732 324.067 113.673 323.475 113.422C322.66 113.078 322.961 113.054 322.213 113.27C321.738 113.407 321.291 113.775 320.715 113.661C319.629 113.454 318.842 112.78 317.889 112.259C316.337 111.409 316.67 113.344 315.474 113.869C314.961 114.096 312.652 114.006 312.142 113.638C311.217 112.972 311.131 111.284 309.971 112.878C309.301 113.798 309.187 115.161 308.764 116.23C308.277 117.464 308.156 118.623 306.772 118.905C306.29 119.003 305.447 119.226 304.989 119.219C304.597 119.207 303.871 118.901 303.613 118.819V118.627L303.209 118.572L302.841 118.212V118.008L302.715 117.613L302.405 117.413L302.123 117.711L301.821 117.75L301.347 117.433H300.885L300.857 116.606L300.065 117.781L298.827 118.749L298.082 119.708L297.314 119.728L296.181 120.48L295.354 120.503L293.288 121.33L291.308 121.384L289.776 121.647L288.208 122.516L286.502 122.563L283.919 122.583L282.065 123.237L281.493 122.43L278.181 121.976L275.974 121.819L275.221 122.446L274.817 121.854L274.163 121.874L272.156 122.974L270.513 123.237L269.451 124.533L266.923 124.604L266.511 125.551L265.653 126.292L264.073 126.773L263.054 127.792L260.917 128.128L260.067 129.143L256.743 130.337L255.857 131.019L253.987 131.097L252.905 131.708L251.698 131.767L248.887 132.562L244.419 133.102L241.706 132.464L235.575 132.554L232.678 130.083L232.671 130.075C232.624 130.04 232.416 129.883 231.632 129.28L228.523 128.269C227.434 128.9 227.598 128.238 226.72 127.913C225.889 127.6 225.266 128.41 224.588 128.281C224.392 128.634 224.133 128.947 223.82 129.186C223.62 129.01 223.459 129.08 223.282 128.99C223.188 129.468 222.836 129.848 222.436 130.075C222.369 129.961 222.24 129.844 222.185 129.754C221.793 130.326 221.472 129.946 221.095 130.118C220.617 130.329 220.358 130.635 219.958 130.929C219.406 131.336 218.312 132.487 217.654 132.401C217.575 132.229 217.461 132.162 217.375 132.006C216.662 132.378 216.113 131.837 215.49 132.053C215.106 132.19 214.616 132.953 214.083 133.184C213.389 133.486 212.871 133.513 212.515 134.109C212.15 134.712 212.718 135.307 211.672 135.464C211.013 135.123 210.202 134.512 209.383 134.414C208.728 134.336 207.521 134.63 206.831 134.692C206.811 134.677 206.686 134.442 206.662 134.402C206.584 134.465 206.466 134.559 206.368 134.626C205.882 134.277 205.431 133.784 204.914 134.148L204.926 134.16C204.961 134.387 204.886 135.072 204.569 135.111C204.318 135.143 204.338 134.818 204.185 134.731C204.059 134.665 203.863 134.684 203.781 134.637C202.911 134.14 203.918 133.925 203.808 133.22C204.247 132.671 203.158 132.84 202.915 132.617C202.962 132.429 202.954 132.237 202.832 132.088C202.656 132.225 202.433 132.339 202.186 132.307C202.103 131.849 201.723 131.571 201.233 131.692C201.217 131.767 201.182 131.822 201.166 131.896C200.308 132.201 199.026 131.673 198.293 131.242C197.878 130.999 197.525 130.823 197.019 130.811C196.537 130.799 196.592 130.839 196.478 131.211C196.396 131.485 196.427 131.575 196.29 131.833C196.243 131.923 196.067 131.916 196.004 132.045C195.953 132.151 196.122 132.389 196.067 132.53C196.016 132.679 195.636 133.016 195.534 133.165C195.741 133.4 196.055 133.748 195.996 134.077C195.538 134.32 195.577 134.324 195.31 134.708C195.283 134.755 195.004 135.06 194.989 135.104C194.848 135.456 194.922 135.295 194.997 135.656C195.185 136.549 195.408 136.979 195.032 137.853C194.859 138.248 194.577 138.393 194.365 138.734C194.071 139.208 194.44 139.208 194.695 139.553C194.942 139.882 194.906 140.226 195.044 140.602C195.067 140.661 195.22 140.962 195.259 140.99C195.416 141.1 195.561 140.955 195.659 141.017C196.298 141.405 195.761 141.554 195.675 142.055C195.573 142.639 196.055 142.231 196.447 142.055C196.6 142.204 196.831 142.321 196.91 142.505C197.051 142.827 196.909 142.897 197.039 143.16C197.074 143.23 197.29 143.203 197.349 143.312C197.419 143.445 197.349 143.555 197.372 143.657C197.407 143.841 197.415 144.197 197.454 144.428C197.062 144.503 196.827 144.401 196.51 144.503C196.169 144.62 196.071 144.765 195.679 144.699C195.189 144.62 194.217 144.123 193.785 144.495C193.805 144.585 193.754 144.718 193.774 144.812C193.48 144.738 193.55 145.122 193.327 145.294C193.001 145.549 192.911 145.4 192.598 145.22C192.382 145.094 191.233 144.726 191.751 145.357C191.712 145.357 191.7 145.357 191.692 145.368H191.759C192.088 145.74 191.79 145.768 191.602 145.968C191.316 146.265 191.237 146.116 191.367 146.59C191.41 146.739 191.547 146.817 191.575 146.982C191.602 147.142 191.465 147.272 191.484 147.381C191.531 147.644 191.916 147.742 191.516 148.032C191.802 148.537 191.97 149.128 191.825 149.602C191.645 150.178 191.202 150.385 190.7 150.628C190.559 150.479 190.246 149.723 189.897 150.025C189.744 150.158 190.003 151.102 189.995 151.349C189.716 151.474 189.438 151.149 189.27 150.941C188.897 151.149 188.031 151.306 187.815 151.674C187.58 152.085 187.921 152.868 187.862 153.342C187.839 153.569 187.804 153.953 187.666 154.141C187.404 154.497 187.419 154.407 187.169 154.125C186.718 153.616 186.777 153.291 186.012 153.174C185.616 153.115 184.699 153.088 184.432 152.829C184.491 152.68 184.844 152.175 184.844 152.089C184.844 151.854 184.503 151.497 184.287 151.548C184.146 151.584 183.895 151.901 183.672 151.967C183.464 152.026 183.272 152.093 183.108 152.014C182.324 151.11 183.37 151.047 183.166 150.186C182.943 149.234 182.888 149.32 182.229 148.525C181.21 147.299 180.368 146.653 180.015 145.059C179.384 142.239 182.355 140.477 184.413 138.652C185.534 137.661 186.769 137.489 187.263 135.934C187.588 134.908 187.078 132.926 186.682 131.904C186.287 130.889 186.608 130.474 185.432 129.801C185.55 129.922 183.425 129.691 183.527 129.589C182.167 130.216 182.19 132.26 180.607 132.965C179.803 133.322 178.647 132.875 177.871 133.314C176.361 134.156 177.071 134.52 176.871 135.675C176.699 136.686 177.353 137.305 176.142 137.943C175.346 138.362 173.978 137.892 173.461 137.336C169.98 140.105 169.192 137.704 166.178 135.84C164.108 134.559 161.336 133.474 159.318 132.354C156.848 134.297 154.034 135.973 151.521 137.99C149.538 139.584 147.276 146.371 144.336 145.924C144.234 141.158 139.965 148.208 139.213 148.627C137.915 149.347 137.429 148.266 136.116 147.824C135.355 147.573 133.066 147.389 132.129 147.624C130.859 147.941 129.915 149.101 128.566 149.304C127.179 149.516 126.332 148.909 125.011 149.516C122.161 150.824 121.761 152.14 118.81 149.927C116.783 148.407 114.858 146.868 113.302 144.859C111.883 143.026 110.425 140.16 108.637 138.714C106.897 137.305 103.675 136.607 101.546 135.632C99.0965 134.512 97.7794 133.357 95.9919 131.497C94.1065 129.531 91.6408 130.212 89.1282 129.601C87.9601 129.315 86.9997 128.649 85.859 128.164C84.977 127.784 84.1931 127.67 83.3542 127.525C81.0532 128.328 79.4735 131.093 79.6773 133.376C79.8341 135.096 79.9557 135.617 79.3167 137.207C78.764 138.585 78.4818 138.93 78.4661 140.669C78.4465 143.171 76.5101 145.897 74.6442 143.23C73.5231 141.628 73.9896 141.483 71.916 142.239C70.6146 142.713 69.7208 143.477 68.5527 144.064C67.1494 144.777 65.8793 144.546 64.3545 144.699C63.1981 144.812 60.4503 145.96 60.7639 143.688C59.2978 143.113 57.4437 143.747 56.0326 143.175C54.6606 142.615 54.1863 141.35 53.3474 140.301C52.3635 139.075 51.4424 138.636 51.3561 136.936C51.3169 136.137 52.0108 136.051 51.7324 135.107C51.4345 134.074 50.2037 134.54 50.3448 133.2C50.6937 133.267 51.1876 133.083 51.5404 133.137C52.0029 131.594 50.4859 130.6 49.2159 130.49C47.1501 130.314 47.6244 131.359 47.1305 133.134C46.9031 133.165 46.2681 133.181 46.1192 133.149C45.1941 132.229 44.9236 128.418 43.1793 130.255C42.1914 129.879 42.4658 129.264 41.917 128.665C41.7093 128.438 42.1091 127.925 41.7759 127.662C41.3643 127.337 41.2154 127.952 40.8665 127.713C40.792 127.662 40.2393 128.019 39.9179 127.835C39.6161 127.662 39.5141 127.001 39.3534 126.93C38.691 126.64 39.2045 125.626 37.9619 126.288C38.3735 127.036 38.6087 127.799 38.3186 128.524C37.5542 128.661 36.9662 128.61 36.3155 128.54C35.8099 128.019 35.3042 127.502 34.8377 126.957C33.7676 128.14 35.1317 129.213 34.5398 130.408C34.14 131.207 32.5642 131.536 31.8625 132.025C31.2667 132.44 30.0751 134.391 29.5655 132.632C29.1343 131.148 31.4157 131.25 30.2123 129.652C30.8277 129.487 31.1491 129.037 31.5725 128.771C30.9727 127.854 26.4609 128.046 25.2536 128.563C23.4465 129.339 20.6948 131.994 19.2522 128.356C20.1303 127.478 22.3607 127.251 23.4661 127.095C25.0223 126.883 26.5707 126.93 28.3973 126.883C29.1852 126.867 30.3651 127.126 31.0158 126.675C31.7645 126.162 31.1765 125.309 32.0585 124.78C32.7445 124.365 34.0224 125.081 34.7946 124.639C35.7824 124.083 35.6687 123.006 36.4723 122.27H22.2666C21.9374 121.541 21.4082 121.944 20.8476 121.858C20.3694 121.78 19.8598 121.196 19.5894 121.165C18.6603 121.075 18.1351 122.9 16.8572 121.666C16.034 120.875 17.4217 119.563 18.0214 118.772C18.3585 118.326 18.3938 117.926 18.9543 117.766C19.9186 117.484 19.6207 118.169 20.1264 118.706C21.1495 119.79 23.18 119.281 22.3176 117.582C22.8664 117.343 23.7954 117.699 24.1756 117.221C24.5245 116.779 24.0894 115.89 24.0737 115.369C23.5641 115.541 22.349 116.117 21.8629 115.698C21.173 115.106 22.1961 114.182 21.6787 113.787C21.1926 113.418 20.3577 114.194 19.997 113.266C19.7226 112.549 20.6869 111.644 19.46 112.083C18.6564 112.369 18.3115 113.375 17.2962 113.238C16.4926 113.129 16.1399 112.349 16.3045 111.586C16.5789 110.278 17.9665 108.621 16.8298 107.203C16.3594 106.616 12.7452 106.381 13.9918 104.955C14.4229 104.462 15.3049 104.869 15.9125 104.799C16.4809 104.732 17.5706 104.603 17.9312 104.062C18.6603 102.973 17.5667 101.007 18.2448 99.6642C18.6094 98.9357 19.2052 98.8535 18.4291 98.1407C17.8254 97.5885 16.7906 97.9135 16.1947 97.5689C15.5832 97.2125 15.3402 96.5232 14.6542 96.1786C13.9878 95.8378 13.2039 95.689 12.4434 95.6538C10.2483 95.548 11.5105 94.1499 10.3267 92.7439C9.86019 92.1878 9.5466 91.9685 8.92334 92.086C8.81358 92.1055 8.69598 92.1369 8.57054 92.176C7.55137 92.4933 7.93552 92.7165 7.50041 93.5389C6.48516 95.4462 5.42679 93.1003 4.61146 92.3013C3.58445 91.2948 1.8009 91.6708 1.6441 89.7909C1.59706 89.2505 1.7225 87.9268 2.27912 87.7897C2.96118 87.6213 3.52565 88.8354 4.37234 88.428C4.5997 88.3223 5.63455 87.0338 5.63455 86.8067C5.64631 86.09 4.37234 86.1487 3.98035 85.4908C3.50605 84.6918 4.13715 84.3198 4.16459 83.5051C4.18811 82.7493 3.66676 82.1344 3.82356 81.3825C4.27827 79.2833 6.90067 80.6227 7.75913 81.6997C8.75086 82.949 8.42551 84.6096 8.33535 86.043C8.31967 86.2819 8.22952 86.5639 8.13544 86.8537C7.9708 87.3589 7.78265 87.8993 7.9316 88.3223C8.07664 88.7414 8.23735 88.9019 8.39023 88.9019C8.71558 88.9019 9.01349 88.2087 9.09189 87.6957C9.21733 86.8537 9.02133 85.8628 10.0091 86.7753C10.2718 87.0221 10.2875 87.3354 10.4521 87.586C10.8715 88.2244 10.6167 87.9894 11.193 88.3223C11.7378 88.6317 12.4042 88.8745 12.9726 89.1722C13.6664 88.2675 13.835 88.479 14.8855 88.1422C15.4578 87.9581 16.9199 87.5821 16.9434 86.9829C16.132 86.3484 15.1089 86.9085 14.2073 86.5717C12.9177 86.0861 12.8628 85.6827 12.5532 84.5038C12.2552 83.3759 11.6712 82.9882 10.9813 82.1423C10.4874 81.5391 10.2561 80.1606 11.0871 79.6162C11.3772 79.7493 11.7653 80.3172 12.0279 80.3407C12.6668 80.3955 12.4748 79.9412 12.8903 79.7493C13.7291 79.3655 14.1329 79.7298 14.6503 78.7898C15.1011 77.9713 14.858 77.4583 15.9125 77.1332C16.3123 77.0079 16.1751 77.5405 16.6965 77.1136C16.9042 76.9452 16.8925 76.3303 17.061 76.064L17.308 75.9622C17.0571 75.4961 16.4064 75.3747 15.936 75.2024C14.9952 74.8499 14.6973 75.1711 13.7095 75.1163C11.3184 74.9792 14.4661 72.6215 14.3328 71.7756C14.2309 71.1176 13.6154 70.82 13.2901 70.303C12.9295 69.7351 12.9804 68.9401 12.2827 68.478C11.2635 67.8005 8.76654 67.4911 10.0287 65.8814C10.4835 65.2979 11.0636 65.1726 11.5849 64.7261C12.0828 64.2992 12.2239 63.7 12.5767 63.1791C13.0235 62.5251 13.5958 61.8867 14.3328 61.5969C14.8894 61.3776 15.8537 61.5734 16.1007 60.7666C16.6377 59.0238 13.733 59.8894 12.9687 60.0264C12.4748 60.1126 11.6241 60.3906 11.0636 60.4259C10.4247 60.4611 9.4878 60.0108 8.93509 60.14C8.53135 60.234 8.36279 60.7235 7.9904 60.8724C7.61017 61.0251 7.27306 60.8959 6.88891 60.9703C6.05006 61.1308 5.21904 61.4951 4.36058 61.73C3.0239 62.106 1.20507 62.2509 0.0839844 61.2679C1.08356 58.7575 1.24035 56.0552 1.93417 53.4273C2.23208 52.2955 2.30264 51.4025 2.48296 50.2315C2.68679 48.8804 3.52565 48.8921 4.5801 48.4222C5.74039 47.9091 6.30877 46.8987 7.25738 46.0449C7.66897 45.6768 7.94336 45.2029 8.29223 44.7917C8.40983 44.6546 8.53527 44.5293 8.67246 44.4118C9.23693 43.9458 9.98954 43.7186 10.5618 43.2447C11.4556 42.5006 12.2435 41.9484 12.9216 41.0124C13.6546 40.002 14.4347 39.767 15.7047 40.1234C17.0061 40.4837 17.0532 41.0515 18.382 40.3818C19.507 39.8218 20.1499 39.6612 21.3376 40.2095C21.9491 39.7396 22.2902 38.921 23.2349 39.0894C23.6464 40.5072 23.3995 41.8074 25.1164 42.1951C26.3041 42.4614 27.68 42.4105 28.8089 42.6377C29.9026 42.8531 31.2079 43.4562 32.3212 43.4797C33.4854 43.4993 34.6888 42.763 33.9479 41.6312C33.3952 40.7852 32.376 40.1899 31.7332 39.3871C32.0664 38.69 32.231 37.8401 33.16 37.9184C33.7637 37.9654 34.3517 38.6351 34.8887 38.8662C35.5629 39.1599 36.2489 39.156 36.8565 39.4184C37.3935 39.6456 37.9619 40.1116 38.4401 40.4719C38.2911 41.0946 37.0564 41.6468 36.5821 42.0972C37.9658 43.1468 40.451 42.6455 41.9954 42.199C43.7633 41.6899 45.3665 42.9079 47.1619 43.2643C48.1379 43.4601 48.7651 43.4797 49.7843 43.3779C50.8152 43.2682 51.3169 43.4288 52.2224 43.6677C53.0456 43.8831 53.8061 43.6912 54.7155 43.8165C55.5465 43.934 56.8557 44.1729 57.6515 43.7147C59.6506 42.5594 57.1537 41.3492 56.0796 41.0672C55.1114 40.8126 54.2529 41.8035 53.4572 41.6468C52.8026 41.5176 52.1088 39.951 52.2185 39.485C52.489 38.3727 55.7307 37.1626 56.7068 36.9981C57.236 36.908 57.53 37.0255 58.0748 36.8493C58.5217 36.7083 58.6315 36.301 59.2273 36.3401C59.6349 36.3675 60.2347 36.7044 60.7208 36.767C61.1637 36.8218 61.6262 36.9198 62.0574 36.955C63.0884 37.0412 63.9703 36.6221 65.0013 36.6613C65.9616 36.7004 66.8632 36.6495 67.8275 36.6613C69.466 36.6809 71.0222 37.1352 72.3628 36.2383C72.6882 35.3924 72.0453 34.7775 70.9752 34.8793C69.7483 34.9929 69.0231 35.2788 67.7295 35.0869C66.4164 34.8911 65.0013 34.8911 63.6842 34.7736C63.1903 34.7266 62.7003 34.5033 62.3201 34.4603C61.8654 34.4094 61.5047 34.6443 60.952 34.566C59.5683 34.3741 59.8545 32.9681 59.5173 32.0713C59.1881 31.194 58.2983 30.3246 57.6789 29.6314C57.2713 29.1771 57.1537 29.0439 56.9185 28.4878C56.6793 27.9356 56.8087 27.4499 56.0718 27.4304H56.0482C55.0879 27.4304 54.1785 29.1927 53.3514 29.506C51.5443 30.1992 49.2747 28.292 47.6362 27.7437C46.6013 27.399 45.4881 27.4029 44.4375 27.0113C43.3674 26.6118 42.3286 25.8481 41.184 25.6484C39.9022 25.4252 39.2554 26.4317 38.3303 27.1131C37.2798 27.8886 36.3116 27.9591 35.1474 27.4264C33.4618 26.6549 30.3651 26.6706 28.6992 27.8729C27.7506 28.5544 27.1273 29.9956 26.5746 30.9982C25.9004 32.2279 24.7989 32.8937 23.764 33.8023C22.8977 34.5582 21.9844 35.4198 20.8555 35.8428C19.9108 36.1952 18.923 35.7958 18.0018 36.2931C17.0767 36.7866 16.5985 37.2252 15.5871 37.5503C14.7209 37.8323 13.4665 38.267 12.7727 38.8858C12.0592 39.5242 11.5301 40.656 10.7657 41.357C9.98955 42.0659 8.87238 42.6103 8.1668 43.2878C7.84929 43.5894 7.37106 44.1494 6.81835 44.7408C5.83446 45.7943 4.63106 46.9183 3.78828 46.7264C2.27912 46.3817 3.98427 45.3047 4.36058 44.7329C5.1524 43.5384 4.44682 42.669 4.67809 41.5803C5.20336 39.0816 8.10016 39.0072 9.92291 38.3336C10.9499 37.9576 11.9495 37.143 12.9216 36.6221C13.7879 36.16 15.6891 36.1326 15.8929 34.9342C16.281 32.6235 11.5418 33.3989 10.3149 33.6496C9.49172 33.8141 8.76262 34.0569 7.9316 34.147C6.90459 34.2605 6.11669 34.7971 5.12496 34.9576C4.28611 35.0986 2.48688 34.3624 1.89889 33.677C0.848363 32.4629 1.94985 31.7384 2.89455 31.3742C4.63498 30.7005 4.77609 28.805 5.85798 27.5165C6.23429 27.0622 6.79092 26.8312 7.17506 26.3103C7.3593 26.0635 7.3593 25.7189 7.53177 25.4682C7.72385 25.2019 8.07664 25.3155 8.25303 24.9239C8.65286 24.0505 8.08056 22.4448 8.03744 21.5675C7.98648 20.561 8.20208 19.0023 8.68422 18.1289C10.3698 18.0271 13.5606 17.6746 13.9094 15.6499C14.1917 13.9893 14.1446 11.3888 12.9138 9.99853C12.0161 8.97635 8.20992 7.31189 9.61324 5.21271C10.1973 4.33935 11.1773 5.5456 12.0671 5.75709C13.2117 6.02732 13.8898 5.3302 14.3367 4.27669C15.0501 2.5809 15.4225 -0.109659 17.8489 1.60572C19.5854 2.83546 20.8947 2.83938 22.345 1.18666C23.0545 0.321144 23.5406 0 24.5715 0C25.0223 0 25.43 0.117492 25.9082 0.168405C26.3472 0.215401 26.8882 0.0156655 27.3311 0.148823C28.0054 0.348558 28.7149 1.52739 29.1656 1.98561C29.7654 2.59656 30.0202 3.78323 30.714 4.21403C31.9644 4.98947 32.2075 3.30935 33.0463 3.30151C33.5246 3.30151 33.6382 4.23753 34.2497 4.24928C34.9906 4.26103 34.8848 3.47383 35.3591 3.26235C35.853 3.03911 35.998 3.39159 36.5076 3.40725C36.9741 3.42292 37.3661 3.11353 37.8168 3.06653C38.7263 2.97254 39.6082 3.22318 40.1805 4.03388C40.8352 4.97381 40.0394 4.97381 39.5259 6.01948C38.934 7.20615 39.1535 7.5782 40.0512 8.40456C41.0194 9.30141 41.2938 10.2962 41.6936 11.5338C42.1366 12.9045 42.7324 14.0716 43.4654 15.3248C44.0181 16.2726 44.6375 16.9462 45.5312 17.5611C46.4563 18.2034 47.1227 19.0415 48.0556 19.6877C48.965 20.3143 49.9489 20.5493 50.9602 20.9017C52.097 21.2934 52.9947 21.9592 54.1393 22.3156C54.9585 22.574 55.864 22.8834 56.7264 22.9735C57.1811 23.0244 57.5221 22.9108 58.016 23.0479C58.5413 23.2007 58.945 23.651 59.4311 23.8625C61.3244 24.6889 63.9076 24.3638 65.9342 24.775C68.1058 25.2215 70.2735 25.5779 72.4412 25.9304C73.48 26.0988 74.554 26.1654 75.5889 26.3494C76.5101 26.5178 77.4822 27.3285 78.4739 27.0896C79.3206 26.886 79.497 26.0009 80.2026 25.5192C81.2453 24.8025 81.747 25.2293 82.6408 25.809C83.366 26.2789 84.2793 26.557 84.9731 26.9839C85.8002 27.4969 86.3255 28.2254 87.3407 28.5818C88.4736 28.9812 89.0812 28.6836 90.1709 28.7619L96.6779 28.3429L100.139 25.7228V22.6837L102.554 22.484V22.4722C105.58 21.8887 108.238 20.2477 110.695 18.3169C111.805 17.4436 112.93 16.723 114.082 15.9749C115.199 15.2543 116.219 14.0559 117.367 13.4919C118.41 12.9828 119.982 13.1199 121.15 12.9397C122.506 12.7322 123.749 12.693 125.136 12.552C126.634 12.3993 127.582 11.8862 128.668 10.9815C129.785 10.0494 130.679 10.0181 131.988 9.47765C133.572 8.82753 134.352 7.48421 136.045 7.66045C136.959 7.75444 138.135 7.94634 139.17 8.17741C139.177 8.17741 139.185 8.17741 139.189 8.17741C139.609 8.32623 140.028 8.42414 140.451 8.49856C141.815 8.74529 143.199 8.72962 144.579 9.04685C146.508 9.4894 148.346 9.61472 150.384 9.61472C154.046 9.61472 158.157 10.3902 161.438 8.80795C162.556 8.2714 164.194 6.22313 165.272 6.10956C166.84 5.94899 168.224 7.91501 168.29 9.33666C168.467 13.2687 170.454 16.112 174.582 16.7543C177.722 17.2399 182.292 12.834 184.252 16.9384C185.075 18.6655 184.127 20.4122 185.456 22.1981C186.369 23.4239 187.827 24.5048 189.089 25.3077C191.261 26.6862 191.7 25.3194 193.472 24.0427C195 22.9343 196.494 23.839 198.078 24.4265C199.987 25.1354 200.692 25.621 201.962 27.2267C203.393 29.0361 204.785 27.8572 206.611 28.7619C208.011 29.4551 209.151 31.664 211.237 30.583C212.342 30.0113 212.095 29.3063 213.357 29.1496C214.228 29.0439 214.8 29.0987 215.392 29.9133C215.917 30.6379 215.764 31.2762 216.65 31.8715C217.352 32.3454 218.328 32.4747 219.131 32.6744C220.848 33.1052 222.706 33.1914 224.517 33.3754C224.941 33.4185 225.54 33.5282 226.058 33.536C226.724 33.0386 228.194 32.8311 228.962 32.4982C230.083 32.0125 231.099 31.147 232.212 30.7123C234.07 29.9721 237.045 29.5178 239.064 29.3181C240.079 29.2162 241.059 29.4042 242 29.0126C243.203 28.5113 243.403 27.634 244.658 28.0335C245.595 28.3311 245.716 28.9538 246.504 29.6C247.264 30.2227 248.146 30.5752 248.989 31.1353C252.419 33.3989 258.773 31.3859 261.725 28.9421C263.242 27.6849 265.178 28.2763 266.723 27.0544C267.573 26.3847 267.989 25.3743 268.996 24.8142C269.835 24.356 270.913 24.2738 271.787 23.8429C275.311 22.0923 278.302 19.0963 280.709 16.0298L280.779 16.0846C281.697 16.1433 282.065 15.4815 282.978 15.689C283.841 15.8849 284.045 16.5546 284.789 16.9188C285.464 17.2478 284.938 17.2869 285.573 16.9188C285.864 16.7465 286.028 16.4645 286.252 16.1864C286.557 15.8065 286.859 15.458 287.2 15.1642C287.729 14.7139 287.725 14.8705 288.223 14.753C288.858 14.6003 289.646 14.6159 290.32 14.6159C291.104 14.6159 291.869 14.9998 292.523 15.0076C293.221 15.0193 293.84 14.287 294.546 14.6904C295.165 15.0428 295.032 15.7517 295.883 15.9788C297.608 16.4449 298.611 14.7844 299.027 13.4606C299.336 12.4698 299.297 12.3914 300.179 12.2074C300.747 12.086 301.606 12.0311 302.178 12.0703C302.954 12.1251 303.303 12.18 303.44 13.1356C303.538 13.8248 302.978 14.5768 303.985 14.5259C305.044 14.475 304.91 13.5194 305.761 14.5024C306.22 15.035 306.412 15.6303 306.996 16.1003C307.525 16.5232 308.219 17.3809 308.76 17.6746C309.406 18.0271 310.088 17.5415 310.543 18.1681C310.994 18.783 310.386 19.7229 310.672 20.3691C310.904 20.8978 311.621 21.2268 312.037 21.6341C312.64 21.0271 314.612 20.5728 315.388 20.7882C316.627 21.1406 316.427 22.9892 317.05 24.0583C317.764 25.2763 318.928 25.0727 319.724 26.2124C320.39 27.1719 321.248 27.4852 321.484 28.5465C321.734 29.6509 321.585 30.8729 321.821 32.0047C322.075 33.2658 322.079 33.9786 321.248 35.1261C320.633 35.9759 319.492 36.2775 319.7 37.3427C319.849 38.0868 320.155 38.1769 320.119 38.9759C320.092 39.6103 319.822 39.9315 320.225 40.5972C320.508 41.0594 320.994 41.357 321.276 41.8544C321.55 42.344 321.558 42.9314 321.825 43.4014C322.311 44.263 323.714 45.1128 322.048 45.7355C323.267 47.3569 324.866 47.2316 326.736 47.4117C327.669 47.5018 328.226 47.6741 329.17 47.541C330.045 47.4118 330.738 47.2042 331.558 47.0162C332.82 46.7225 335.109 46.3034 336.179 47.0671C336.979 47.6389 337.445 48.6846 338.249 49.319C339.068 49.9692 339.762 50.7524 340.53 51.4574C341.173 52.0409 341.385 52.6871 341.918 53.3098C342.251 53.7015 342.788 53.9639 343.235 54.2458L343.149 54.3829C343.509 54.5357 343.811 54.892 343.999 55.2484C343.545 55.7576 343.521 55.2014 343.102 55.0095C342.447 54.708 341.467 54.3242 340.922 53.8855C340.26 53.3529 340.005 52.2054 338.876 52.7263C338.076 53.0944 338.053 54.2223 337.841 54.896C337.602 55.644 337.006 56.5487 336.916 57.328C336.689 59.2588 338.398 60.7627 336.069 62.1178C334.694 62.9167 335.168 61.8554 334.16 61.4794C333.674 61.2993 332.126 61.7183 331.609 61.8867C330.546 62.2392 330.068 62.5094 330.507 63.5982C330.813 64.354 331.397 64.9258 331.581 65.7326C331.856 66.9388 331.852 66.8292 333.028 67.2247C334.153 67.6007 333.988 67.8122 334.078 69.0576C334.16 70.2599 334.121 70.2286 333.494 71.2077C333.094 71.8265 333.024 71.427 333.341 72.2573C333.471 72.5941 333.745 72.9779 333.972 73.2638C334.988 74.5445 336.587 75.0105 336.501 76.8669C336.454 77.8342 335.697 78.2846 336.548 79.1658C336.814 79.4439 337.328 79.4399 337.516 79.8238C337.684 80.1723 337.5 80.8263 337.539 81.2141C337.618 82.0639 337.524 82.9138 337.532 83.7793C337.543 84.6448 337.935 85.3654 338.182 86.1722C338.704 87.0769 340.119 85.4516 340.766 86.6148C341.357 87.68 340.13 88.1265 339.519 88.8119C340.491 89.6656 339.182 91.2831 338.9 92.2739C338.519 93.6251 338.174 94.1185 337.394 95.313C336.806 96.206 336.626 97.702 337.637 98.1485C338.802 98.6616 339.495 97.4749 340.526 98.4579C340.926 98.8378 341.067 99.3273 341.589 99.6015C342.063 99.8521 342.526 99.6093 342.996 100.044C343.325 99.8169 344.097 99.6367 344.466 99.9266C344.948 100.31 344.642 100.706 344.697 101.278C345.446 101.607 344.748 102.97 344.646 103.573C344.525 104.332 344.646 105.131 344.776 105.903C344.913 106.718 344.917 107.654 345.407 108.308C345.818 108.86 346.916 109.839 347.504 110.07C348.307 110.387 348.899 110.039 349.475 110.955C349.926 111.676 349.856 112.432 349.468 113.105H349.436Z" fill="#EEEEEE"/>
</g>
<defs>
<filter id="filter0_d_4379_3761" x="0.0839844" y="0" width="351.603" height="158.275" filterUnits="userSpaceOnUse" color-interpolation-filters="sRGB">
<feFlood flood-opacity="0" result="BackgroundImageFix"/>
<feColorMatrix in="SourceAlpha" type="matrix" values="0 0 0 0 0 0 0 0 0 0 0 0 0 0 0 0 0 0 127 0" result="hardAlpha"/>
<feOffset dx="1" dy="3"/>
<feGaussianBlur stdDeviation="0.45"/>
<feComposite in2="hardAlpha" operator="out"/>
<feColorMatrix type="matrix" values="0 0 0 0 0 0 0 0 0 0 0 0 0 0 0 0 0 0 0.25 0"/>
<feBlend mode="normal" in2="BackgroundImageFix" result="effect1_dropShadow_4379_3761"/>
<feBlend mode="normal" in="SourceGraphic" in2="effect1_dropShadow_4379_3761" result="shape"/>
</filter>
</defs>
</svg>
