<svg width="143" height="142" viewBox="0 0 143 142" fill="none" xmlns="http://www.w3.org/2000/svg">
<path d="M140.073 58.6769L76.1803 1.79891C73.3406 -0.334013 69.791 -0.334013 66.9514 1.79891L3.05867 58.6769C0.218995 61.5208 -0.490925 65.7867 2.34875 68.6306C5.18843 71.4745 9.44794 72.1854 12.2876 69.3415L14.4174 66.4976V134.751C14.4174 139.017 17.257 141.861 21.5166 141.861H120.905C125.165 141.861 128.004 139.017 128.004 134.751V66.4976L130.134 68.6306C132.974 71.4745 137.233 70.7635 140.073 67.9196C142.913 65.7867 142.913 60.8098 140.073 58.6769ZM71.2109 63.6537C81.8597 63.6537 90.3787 72.1854 90.3787 82.8501C90.3787 93.5147 81.8597 102.046 71.2109 102.046C60.5621 102.046 52.0431 93.5147 52.0431 82.8501C52.0431 72.1854 60.5621 63.6537 71.2109 63.6537ZM35.7149 127.641C35.7149 126.931 35.7149 126.931 36.4249 126.22C52.0431 107.023 80.4398 103.468 99.6076 119.11C102.447 121.243 104.577 123.376 106.707 126.22C106.707 126.22 106.707 126.931 107.417 127.641H35.7149Z" fill="#EA2B2E" fill-opacity="0.04"/>
</svg>
