<svg width="23" height="105" viewBox="0 0 23 105" fill="none" xmlns="http://www.w3.org/2000/svg">
<path d="M9.15745 104.81C9.60467 104.911 10.0491 104.63 10.1502 104.183L11.7969 96.895C11.898 96.4478 11.6173 96.0033 11.1701 95.9023C10.7229 95.8012 10.2784 96.0818 10.1774 96.5291L8.71361 103.007L2.23541 101.544C1.78818 101.442 1.34372 101.723 1.24267 102.17C1.14161 102.618 1.42224 103.062 1.86947 103.163L9.15745 104.81ZM18.8313 2.90421C18.9847 3.33627 19.4594 3.56213 19.8914 3.40868C20.3235 3.25523 20.5493 2.78058 20.3959 2.34852L18.8313 2.90421ZM21.4322 5.65985C21.3125 5.21725 20.8567 4.9555 20.4141 5.07521C19.9715 5.19492 19.7097 5.65075 19.8294 6.09335L21.4322 5.65985ZM20.5664 9.34814C20.6486 9.79922 21.0808 10.0983 21.5319 10.0161C21.983 9.93398 22.2821 9.50171 22.1999 9.05062L20.5664 9.34814ZM22.6719 12.5015C22.6302 12.0449 22.2262 11.7085 21.7696 11.7502C21.313 11.7919 20.9767 12.1959 21.0184 12.6525L22.6719 12.5015ZM21.1698 15.9836C21.1697 16.4421 21.5413 16.8139 21.9998 16.8141C22.4583 16.8142 22.8301 16.4426 22.8302 15.9841L21.1698 15.9836ZM22.6714 19.466C22.7128 19.0094 22.3761 18.6057 21.9195 18.5643C21.4628 18.523 21.0591 18.8596 21.0178 19.3162L22.6714 19.466ZM20.5735 22.6268C20.4935 23.0783 20.7946 23.5091 21.2461 23.5891C21.6975 23.6691 22.1284 23.368 22.2084 22.9165L20.5735 22.6268ZM21.4682 26.3118C21.5827 25.8678 21.3156 25.4151 20.8716 25.3006C20.4277 25.1861 19.9749 25.4532 19.8604 25.8971L21.4682 26.3118ZM18.911 29.1162C18.7671 29.5515 19.0032 30.0211 19.4386 30.165C19.8739 30.309 20.3435 30.0728 20.4874 29.6375L18.911 29.1162ZM19.3071 32.8888C19.4752 32.4622 19.2655 31.9801 18.8389 31.8121C18.4123 31.644 17.9303 31.8536 17.7623 32.2802L19.3071 32.8888ZM16.4524 35.3921C16.2655 35.8108 16.4535 36.3017 16.8722 36.4885C17.2909 36.6754 17.7818 36.4874 17.9686 36.0687L16.4524 35.3921ZM16.5113 39.1863C16.712 38.774 16.5405 38.2771 16.1282 38.0765C15.716 37.8758 15.2191 38.0473 15.0184 38.4596L16.5113 39.1863ZM13.4955 41.4941C13.2856 41.9017 13.4459 42.4024 13.8535 42.6122C14.2612 42.8221 14.7618 42.6618 14.9717 42.2542L13.4955 41.4941ZM13.3834 45.2874C13.5982 44.8823 13.4439 44.3798 13.0389 44.165C12.6338 43.9502 12.1313 44.1045 11.9165 44.5096L13.3834 45.2874ZM10.3127 47.5213C10.0972 47.926 10.2505 48.4288 10.6552 48.6443C11.0599 48.8599 11.5627 48.7065 11.7782 48.3018L10.3127 47.5213ZM10.1866 51.314C10.3988 50.9075 10.2413 50.406 9.83487 50.1938C9.42842 49.9816 8.92692 50.1391 8.71473 50.5456L10.1866 51.314ZM7.1533 53.5985C6.94865 54.0088 7.11537 54.5074 7.52566 54.712C7.93596 54.9166 8.43447 54.7499 8.63911 54.3396L7.1533 53.5985ZM7.16748 57.3932C7.36017 56.9772 7.1791 56.4837 6.76306 56.291C6.34701 56.0983 5.85354 56.2794 5.66085 56.6954L7.16748 57.3932ZM4.27195 59.8496C4.09592 60.2729 4.29642 60.7588 4.71978 60.9349C5.14314 61.1109 5.62905 60.9104 5.80508 60.487L4.27195 59.8496ZM4.58719 63.6301C4.74157 63.1984 4.51675 62.7233 4.08502 62.5689C3.65329 62.4145 3.17815 62.6393 3.02377 63.0711L4.58719 63.6301ZM1.95553 66.3653C1.82794 66.8056 2.08151 67.2661 2.5219 67.3937C2.96229 67.5213 3.42273 67.2677 3.55032 66.8273L1.95553 66.3653ZM2.73061 70.0774C2.82642 69.6291 2.5406 69.1879 2.09222 69.0921C1.64384 68.9963 1.20269 69.2821 1.10689 69.7305L2.73061 70.0774ZM0.514792 73.1567C0.455111 73.6113 0.775258 74.0282 1.22986 74.0879C1.68446 74.1476 2.10136 73.8274 2.16104 73.3728L0.514792 73.1567ZM1.86779 76.6987C1.88823 76.2407 1.53348 75.8528 1.07544 75.8324C0.617392 75.8119 0.229502 76.1667 0.209061 76.6247L1.86779 76.6987ZM0.207865 80.108C0.22807 80.566 0.615774 80.921 1.07383 80.9008C1.53189 80.8806 1.88683 80.4929 1.86663 80.0348L0.207865 80.108ZM2.16072 83.3576C2.10033 82.9031 1.68293 82.5836 1.22842 82.644C0.773918 82.7044 0.45442 83.1218 0.514807 83.5763L2.16072 83.3576ZM1.11916 87.0012C1.21763 87.449 1.66047 87.7322 2.10827 87.6337C2.55607 87.5353 2.83927 87.0924 2.7408 86.6446L1.11916 87.0012ZM3.58816 89.8782C3.45484 89.4395 2.99114 89.1919 2.55245 89.3252C2.11376 89.4585 1.86621 89.9223 1.99952 90.3609L3.58816 89.8782ZM3.12941 93.6436C3.29383 94.0716 3.77409 94.2852 4.2021 94.1208C4.6301 93.9564 4.84377 93.4761 4.67935 93.0481L3.12941 93.6436ZM5.99101 96.1528C5.79927 95.7363 5.30621 95.5541 4.88972 95.7458C4.47324 95.9376 4.29105 96.4306 4.48279 96.8471L5.99101 96.1528ZM6.02552 99.9548C6.24088 100.36 6.7436 100.513 7.14837 100.298C7.55315 100.082 7.70669 99.5797 7.49132 99.1749L6.02552 99.9548ZM9.13632 102.084C8.90082 101.69 8.391 101.562 7.9976 101.798C7.6042 102.033 7.47619 102.543 7.71169 102.936L9.13632 102.084ZM18.2304 1.30615C18.4434 1.84304 18.6435 2.37568 18.8313 2.90421L20.3959 2.34852C20.2013 1.80074 19.9941 1.24923 19.7737 0.69385L18.2304 1.30615ZM19.8294 6.09335C20.1275 7.1954 20.3719 8.27991 20.5664 9.34814L22.1999 9.05062C21.9969 7.93609 21.7423 6.80622 21.4322 5.65985L19.8294 6.09335ZM21.0184 12.6525C21.1213 13.7792 21.1701 14.8891 21.1698 15.9836L22.8302 15.9841C22.8305 14.8397 22.7794 13.6793 22.6719 12.5015L21.0184 12.6525ZM21.0178 19.3162C20.9166 20.4333 20.7667 21.5362 20.5735 22.6268L22.2084 22.9165C22.4094 21.7817 22.5658 20.6321 22.6714 19.466L21.0178 19.3162ZM19.8604 25.8971C19.5811 26.98 19.2628 28.0524 18.911 29.1162L20.4874 29.6375C20.8499 28.5414 21.1789 27.4334 21.4682 26.3118L19.8604 25.8971ZM17.7623 32.2802C17.3513 33.3237 16.9128 34.3603 16.4524 35.3921L17.9686 36.0687C18.4378 35.0173 18.886 33.9579 19.3071 32.8888L17.7623 32.2802ZM15.0184 38.4596C14.5248 39.4737 14.0154 40.4845 13.4955 41.4941L14.9717 42.2542C15.4958 41.2362 16.011 40.214 16.5113 39.1863L15.0184 38.4596ZM11.9165 44.5096C11.3843 45.5134 10.8487 46.515 10.3127 47.5213L11.7782 48.3018C12.3125 47.2988 12.8503 46.2929 13.3834 45.2874L11.9165 44.5096ZM8.71473 50.5456C8.18587 51.5586 7.66342 52.5758 7.1533 53.5985L8.63911 54.3396C9.14349 53.3284 9.66107 52.3206 10.1866 51.314L8.71473 50.5456ZM5.66085 56.6954C5.1778 57.7384 4.71284 58.7892 4.27195 59.8496L5.80508 60.487C6.23643 59.4496 6.69237 58.419 7.16748 57.3932L5.66085 56.6954ZM3.02377 63.0711C2.63548 64.1569 2.27737 65.2544 1.95553 66.3653L3.55032 66.8273C3.8619 65.7518 4.20934 64.6868 4.58719 63.6301L3.02377 63.0711ZM1.10689 69.7305C0.866132 70.8573 0.666806 71.9988 0.514792 73.1567L2.16104 73.3728C2.307 72.261 2.49862 71.1632 2.73061 70.0774L1.10689 69.7305ZM0.209061 76.6247C0.157988 77.7691 0.155896 78.9297 0.207865 80.108L1.86663 80.0348C1.81687 78.9066 1.81886 77.7951 1.86779 76.6987L0.209061 76.6247ZM0.514807 83.5763C0.664332 84.7017 0.864483 85.8429 1.11916 87.0012L2.7408 86.6446C2.49608 85.5317 2.30406 84.4364 2.16072 83.3576L0.514807 83.5763ZM1.99952 90.3609C2.32753 91.4403 2.70322 92.5342 3.12941 93.6436L4.67935 93.0481C4.26706 91.9749 3.90435 90.9186 3.58816 89.8782L1.99952 90.3609ZM4.48279 96.8471C4.95357 97.8697 5.46714 98.9054 6.02552 99.9548L7.49132 99.1749C6.94743 98.1527 6.44806 97.1455 5.99101 96.1528L4.48279 96.8471ZM7.71169 102.936C8.01048 103.436 8.31933 103.938 8.63844 104.443L10.0424 103.557C9.73019 103.062 9.42824 102.571 9.13632 102.084L7.71169 102.936ZM9.15745 104.81C9.60467 104.911 10.0491 104.63 10.1502 104.183L11.7969 96.895C11.898 96.4478 11.6173 96.0033 11.1701 95.9023C10.7229 95.8012 10.2784 96.0818 10.1774 96.5291L8.71361 103.007L2.23541 101.544C1.78818 101.442 1.34372 101.723 1.24267 102.17C1.14161 102.618 1.42224 103.062 1.86947 103.163L9.15745 104.81ZM18.8313 2.90421C18.9847 3.33627 19.4594 3.56213 19.8914 3.40868C20.3235 3.25523 20.5493 2.78058 20.3959 2.34852L18.8313 2.90421ZM21.4322 5.65985C21.3125 5.21725 20.8567 4.9555 20.4141 5.07521C19.9715 5.19492 19.7097 5.65075 19.8294 6.09335L21.4322 5.65985ZM20.5664 9.34814C20.6486 9.79922 21.0808 10.0983 21.5319 10.0161C21.983 9.93398 22.2821 9.50171 22.1999 9.05062L20.5664 9.34814ZM22.6719 12.5015C22.6302 12.0449 22.2262 11.7085 21.7696 11.7502C21.313 11.7919 20.9767 12.1959 21.0184 12.6525L22.6719 12.5015ZM21.1698 15.9836C21.1697 16.4421 21.5413 16.8139 21.9998 16.8141C22.4583 16.8142 22.8301 16.4426 22.8302 15.9841L21.1698 15.9836ZM22.6714 19.466C22.7128 19.0094 22.3761 18.6057 21.9195 18.5643C21.4628 18.523 21.0591 18.8596 21.0178 19.3162L22.6714 19.466ZM20.5735 22.6268C20.4935 23.0783 20.7946 23.5091 21.2461 23.5891C21.6975 23.6691 22.1284 23.368 22.2084 22.9165L20.5735 22.6268ZM21.4682 26.3118C21.5827 25.8678 21.3156 25.4151 20.8716 25.3006C20.4277 25.1861 19.9749 25.4532 19.8604 25.8971L21.4682 26.3118ZM18.911 29.1162C18.7671 29.5515 19.0032 30.0211 19.4386 30.165C19.8739 30.309 20.3435 30.0728 20.4874 29.6375L18.911 29.1162ZM19.3071 32.8888C19.4752 32.4622 19.2655 31.9801 18.8389 31.8121C18.4123 31.644 17.9303 31.8536 17.7623 32.2802L19.3071 32.8888ZM16.4524 35.3921C16.2655 35.8108 16.4535 36.3017 16.8722 36.4885C17.2909 36.6754 17.7818 36.4874 17.9686 36.0687L16.4524 35.3921ZM16.5113 39.1863C16.712 38.774 16.5405 38.2771 16.1282 38.0765C15.716 37.8758 15.2191 38.0473 15.0184 38.4596L16.5113 39.1863ZM13.4955 41.4941C13.2856 41.9017 13.4459 42.4024 13.8535 42.6122C14.2612 42.8221 14.7618 42.6618 14.9717 42.2542L13.4955 41.4941ZM13.3834 45.2874C13.5982 44.8823 13.4439 44.3798 13.0389 44.165C12.6338 43.9502 12.1313 44.1045 11.9165 44.5096L13.3834 45.2874ZM10.3127 47.5213C10.0972 47.926 10.2505 48.4288 10.6552 48.6443C11.0599 48.8599 11.5627 48.7065 11.7782 48.3018L10.3127 47.5213ZM10.1866 51.314C10.3988 50.9075 10.2413 50.406 9.83487 50.1938C9.42842 49.9816 8.92692 50.1391 8.71473 50.5456L10.1866 51.314ZM7.1533 53.5985C6.94865 54.0088 7.11537 54.5074 7.52566 54.712C7.93596 54.9166 8.43447 54.7499 8.63911 54.3396L7.1533 53.5985ZM7.16748 57.3932C7.36017 56.9772 7.1791 56.4837 6.76306 56.291C6.34701 56.0983 5.85354 56.2794 5.66085 56.6954L7.16748 57.3932ZM4.27195 59.8496C4.09592 60.2729 4.29642 60.7588 4.71978 60.9349C5.14314 61.1109 5.62905 60.9104 5.80508 60.487L4.27195 59.8496ZM4.58719 63.6301C4.74157 63.1984 4.51675 62.7233 4.08502 62.5689C3.65329 62.4145 3.17815 62.6393 3.02377 63.0711L4.58719 63.6301ZM1.95553 66.3653C1.82794 66.8056 2.08151 67.2661 2.5219 67.3937C2.96229 67.5213 3.42273 67.2677 3.55032 66.8273L1.95553 66.3653ZM2.73061 70.0774C2.82642 69.6291 2.5406 69.1879 2.09222 69.0921C1.64384 68.9963 1.20269 69.2821 1.10689 69.7305L2.73061 70.0774ZM0.514792 73.1567C0.455111 73.6113 0.775258 74.0282 1.22986 74.0879C1.68446 74.1476 2.10136 73.8274 2.16104 73.3728L0.514792 73.1567ZM1.86779 76.6987C1.88823 76.2407 1.53348 75.8528 1.07544 75.8324C0.617392 75.8119 0.229502 76.1667 0.209061 76.6247L1.86779 76.6987ZM0.207865 80.108C0.22807 80.566 0.615774 80.921 1.07383 80.9008C1.53189 80.8806 1.88683 80.4929 1.86663 80.0348L0.207865 80.108ZM2.16072 83.3576C2.10033 82.9031 1.68293 82.5836 1.22842 82.644C0.773918 82.7044 0.45442 83.1218 0.514807 83.5763L2.16072 83.3576ZM1.11916 87.0012C1.21763 87.449 1.66047 87.7322 2.10827 87.6337C2.55607 87.5353 2.83927 87.0924 2.7408 86.6446L1.11916 87.0012ZM3.58816 89.8782C3.45484 89.4395 2.99114 89.1919 2.55245 89.3252C2.11376 89.4585 1.86621 89.9223 1.99952 90.3609L3.58816 89.8782ZM3.12941 93.6436C3.29383 94.0716 3.77409 94.2852 4.2021 94.1208C4.6301 93.9564 4.84377 93.4761 4.67935 93.0481L3.12941 93.6436ZM5.99101 96.1528C5.79927 95.7363 5.30621 95.5541 4.88972 95.7458C4.47324 95.9376 4.29105 96.4306 4.48279 96.8471L5.99101 96.1528ZM6.02552 99.9548C6.24088 100.36 6.7436 100.513 7.14837 100.298C7.55315 100.082 7.70669 99.5797 7.49132 99.1749L6.02552 99.9548ZM9.13632 102.084C8.90082 101.69 8.391 101.562 7.9976 101.798C7.6042 102.033 7.47619 102.543 7.71169 102.936L9.13632 102.084ZM18.2304 1.30615C18.4434 1.84304 18.6435 2.37568 18.8313 2.90421L20.3959 2.34852C20.2013 1.80074 19.9941 1.24923 19.7737 0.69385L18.2304 1.30615ZM19.8294 6.09335C20.1275 7.1954 20.3719 8.27991 20.5664 9.34814L22.1999 9.05062C21.9969 7.93609 21.7423 6.80622 21.4322 5.65985L19.8294 6.09335ZM21.0184 12.6525C21.1213 13.7792 21.1701 14.8891 21.1698 15.9836L22.8302 15.9841C22.8305 14.8397 22.7794 13.6793 22.6719 12.5015L21.0184 12.6525ZM21.0178 19.3162C20.9166 20.4333 20.7667 21.5362 20.5735 22.6268L22.2084 22.9165C22.4094 21.7817 22.5658 20.6321 22.6714 19.466L21.0178 19.3162ZM19.8604 25.8971C19.5811 26.98 19.2628 28.0524 18.911 29.1162L20.4874 29.6375C20.8499 28.5414 21.1789 27.4334 21.4682 26.3118L19.8604 25.8971ZM17.7623 32.2802C17.3513 33.3237 16.9128 34.3603 16.4524 35.3921L17.9686 36.0687C18.4378 35.0173 18.886 33.9579 19.3071 32.8888L17.7623 32.2802ZM15.0184 38.4596C14.5248 39.4737 14.0154 40.4845 13.4955 41.4941L14.9717 42.2542C15.4958 41.2362 16.011 40.214 16.5113 39.1863L15.0184 38.4596ZM11.9165 44.5096C11.3843 45.5134 10.8487 46.515 10.3127 47.5213L11.7782 48.3018C12.3125 47.2988 12.8503 46.2929 13.3834 45.2874L11.9165 44.5096ZM8.71473 50.5456C8.18587 51.5586 7.66342 52.5758 7.1533 53.5985L8.63911 54.3396C9.14349 53.3284 9.66107 52.3206 10.1866 51.314L8.71473 50.5456ZM5.66085 56.6954C5.1778 57.7384 4.71284 58.7892 4.27195 59.8496L5.80508 60.487C6.23643 59.4496 6.69237 58.419 7.16748 57.3932L5.66085 56.6954ZM3.02377 63.0711C2.63548 64.1569 2.27737 65.2544 1.95553 66.3653L3.55032 66.8273C3.8619 65.7518 4.20934 64.6868 4.58719 63.6301L3.02377 63.0711ZM1.10689 69.7305C0.866132 70.8573 0.666806 71.9988 0.514792 73.1567L2.16104 73.3728C2.307 72.261 2.49862 71.1632 2.73061 70.0774L1.10689 69.7305ZM0.209061 76.6247C0.157988 77.7691 0.155896 78.9297 0.207865 80.108L1.86663 80.0348C1.81687 78.9066 1.81886 77.7951 1.86779 76.6987L0.209061 76.6247ZM0.514807 83.5763C0.664332 84.7017 0.864483 85.8429 1.11916 87.0012L2.7408 86.6446C2.49608 85.5317 2.30406 84.4364 2.16072 83.3576L0.514807 83.5763ZM1.99952 90.3609C2.32753 91.4403 2.70322 92.5342 3.12941 93.6436L4.67935 93.0481C4.26706 91.9749 3.90435 90.9186 3.58816 89.8782L1.99952 90.3609ZM4.48279 96.8471C4.95357 97.8697 5.46714 98.9054 6.02552 99.9548L7.49132 99.1749C6.94743 98.1527 6.44806 97.1455 5.99101 96.1528L4.48279 96.8471ZM7.71169 102.936C8.01048 103.436 8.31933 103.938 8.63844 104.443L10.0424 103.557C9.73019 103.062 9.42824 102.571 9.13632 102.084L7.71169 102.936Z" fill="black"/>
</svg>
