<svg width="9" height="9" viewBox="0 0 9 9" fill="none" xmlns="http://www.w3.org/2000/svg">
<g clip-path="url(#clip0_4368_2600)">
<path d="M6.33561 6.30078L5.98875 6.95301L7.68705 6.67536C7.34433 6.50346 6.88038 6.38061 6.33561 6.30078ZM1.96071 6.44298C1.17411 6.65043 0.675781 6.99036 0.675781 7.49526C0.676105 7.60396 0.699865 7.71131 0.745441 7.80999L3.47109 7.36449L1.96071 6.44298ZM8.26188 7.20078L4.46838 7.81908L5.46882 8.95722C7.11168 8.81007 8.32578 8.28528 8.32578 7.49526C8.32578 7.38996 8.3031 7.29204 8.26188 7.20078ZM3.8274 7.92582L1.2642 8.34477C1.94172 8.76444 3.13755 9.00078 4.50078 9.00078C4.5834 9.00078 4.66413 8.99844 4.74549 8.99673L3.8274 7.92582Z" fill="#EA2B2E"/>
<path d="M4.50074 0C3.03374 0 1.83008 1.19997 1.83008 2.66364C1.83008 3.22632 2.00891 3.75048 2.31086 4.18149L4.04192 7.17399L4.0493 7.18362C4.11761 7.27281 4.1843 7.34319 4.2626 7.39494C4.3409 7.44678 4.4381 7.47774 4.5335 7.4682C4.72412 7.44912 4.84085 7.31448 4.95164 7.16436L4.95758 7.15662L6.86864 3.90393L6.86972 3.90186C6.91454 3.82086 6.94766 3.73842 6.97574 3.65814C7.10453 3.34239 7.17085 3.00465 7.17104 2.66364C7.17104 1.19997 5.96774 0 4.50074 0ZM4.50074 1.53405C5.13713 1.53405 5.63384 2.02986 5.63384 2.66355C5.63384 3.29742 5.13713 3.79305 4.50074 3.79305C3.86426 3.79305 3.36728 3.29733 3.36728 2.66355C3.36728 2.02995 3.86435 1.53405 4.50074 1.53405Z" fill="#EA2B2E"/>
</g>
<defs>
<clipPath id="clip0_4368_2600">
<rect width="9" height="9" fill="white"/>
</clipPath>
</defs>
</svg>
