<svg width="33" height="34" viewBox="0 0 33 34" fill="none" xmlns="http://www.w3.org/2000/svg">
<path d="M10.75 13.1003L16.6797 17.5485C17.0471 17.824 17.505 17.9505 17.9617 17.9025C18.4184 17.8546 18.8401 17.6358 19.1423 17.29L30.7706 4" stroke="#EA2B2E" stroke-width="3.64011" stroke-linecap="round"/>
<path d="M27.75 16.9998C27.7501 19.6638 26.9156 22.261 25.3638 24.4265C23.8121 26.592 21.621 28.2171 19.0983 29.0734C16.5756 29.9297 13.848 29.9743 11.2987 29.2009C8.74933 28.4276 6.50627 26.875 4.88454 24.7614C3.26281 22.6478 2.34388 20.0793 2.25681 17.4167C2.16975 14.754 2.91892 12.131 4.39912 9.91595C5.87931 7.70093 8.01616 6.0052 10.5095 5.06693C13.0029 4.12866 15.7276 3.99499 18.3008 4.68469" stroke="#EA2B2E" stroke-width="2.83333" stroke-linecap="round"/>
</svg>
