<svg width="160" height="160" viewBox="0 0 160 160" fill="none" xmlns="http://www.w3.org/2000/svg">
<path d="M39.2858 80.203L37.3047 70.2978C35.984 69.7475 34.747 69.1708 33.5936 68.5676C32.4402 67.9645 31.2559 67.2205 30.0409 66.3357L20.4658 69.3072L13.8623 58.0813L21.4563 51.4778C21.2362 50.047 21.1262 48.6163 21.1262 47.1855C21.1262 45.7547 21.2362 44.324 21.4563 42.8932L13.8623 36.2897L20.4658 25.0638L30.0409 28.0353C31.2515 27.1549 32.4358 26.4109 33.5936 25.8033C34.7514 25.1958 35.9884 24.6191 37.3047 24.0732L39.2858 14.168H52.4928L54.4739 24.0732C55.7946 24.6235 57.0338 25.2024 58.1916 25.8099C59.3494 26.4175 60.5315 27.1593 61.7377 28.0353L71.3128 25.0638L77.9163 36.2897L70.3223 42.8932C70.5424 44.324 70.6524 45.7547 70.6524 47.1855C70.6524 48.6163 70.5424 50.047 70.3223 51.4778L77.9163 58.0813L71.3128 69.3072L61.7377 66.3357C60.5271 67.2161 59.345 67.9601 58.1916 68.5676C57.0382 69.1752 55.799 69.7519 54.4739 70.2978L52.4928 80.203H39.2858ZM45.8893 60.3925C49.5212 60.3925 52.6315 59.1004 55.2201 56.5163C57.8086 53.9321 59.1007 50.8218 59.0963 47.1855C59.0919 43.5492 57.7998 40.4411 55.2201 37.8613C52.6403 35.2816 49.53 33.9873 45.8893 33.9785C42.2486 33.9697 39.1405 35.264 36.5652 37.8613C33.9898 40.4587 32.6955 43.5668 32.6823 47.1855C32.6691 50.8042 33.9634 53.9145 36.5652 56.5163C39.1669 59.118 42.275 60.4101 45.8893 60.3925ZM98.3872 152.842L95.4156 138.974C93.5446 138.314 91.8123 137.515 90.2186 136.577C88.625 135.639 87.0556 134.567 85.5103 133.361L72.3033 137.654L63.0584 121.805L73.624 112.56C73.4039 110.579 73.2938 108.598 73.2938 106.617C73.2938 104.636 73.4039 102.655 73.624 100.674L63.0584 91.429L72.3033 75.5806L85.5103 79.8728C87.0512 78.6622 88.6206 77.588 90.2186 76.6503C91.8167 75.7126 93.549 74.9158 95.4156 74.2599L98.3872 60.3925H116.877L119.849 74.2599C121.72 74.9202 123.454 75.7192 125.052 76.6569C126.65 77.5946 128.217 78.6666 129.754 79.8728L142.961 75.5806L152.206 91.429L141.64 100.674C141.86 102.655 141.97 104.636 141.97 106.617C141.97 108.598 141.86 110.579 141.64 112.56L152.206 121.805L142.961 137.654L129.754 133.361C128.213 134.572 126.646 135.644 125.052 136.577C123.458 137.51 121.724 138.309 119.849 138.974L116.877 152.842H98.3872ZM107.632 126.428C113.135 126.428 117.812 124.502 121.665 120.649C125.517 116.797 127.443 112.12 127.443 106.617C127.443 101.114 125.517 96.4366 121.665 92.5846C117.812 88.7326 113.135 86.8065 107.632 86.8065C102.129 86.8065 97.4517 88.7326 93.5996 92.5846C89.7476 96.4366 87.8216 101.114 87.8216 106.617C87.8216 112.12 89.7476 116.797 93.5996 120.649C97.4517 124.502 102.129 126.428 107.632 126.428Z" fill="#EA2B2E" fill-opacity="0.05"/>
</svg>
